<svg version="1.1" id="Layer_1" xmlns="http://www.w3.org/2000/svg" xmlns:xlink="http://www.w3.org/1999/xlink" x="0px" y="0px"
	 width="100%" viewBox="0 0 800 800" enable-background="new 0 0 800 800" xml:space="preserve">
<path fill="#000000" opacity="1.000000" stroke="none" 
	d="
M452.000000,801.000000 
	C301.333344,801.000000 151.166672,801.000000 1.000000,801.000000 
	C1.000000,534.333313 1.000000,267.666656 1.000000,1.000000 
	C267.666656,1.000000 534.333313,1.000000 801.000000,1.000000 
	C801.000000,267.666656 801.000000,534.333313 801.000000,801.000000 
	C684.833313,801.000000 568.666687,801.000000 452.000000,801.000000 
M531.815186,526.497559 
	C529.489319,526.386475 527.163513,526.178589 524.837646,526.178101 
	C441.887207,526.161438 358.936768,526.159973 275.986328,526.185913 
	C273.670532,526.186584 271.322784,526.323120 269.044739,526.714844 
	C259.716553,528.319031 255.051636,533.164551 254.967438,542.506470 
	C254.752747,566.322083 254.696106,590.143860 255.013641,613.957336 
	C255.156952,624.704163 261.622040,630.798401 272.022705,630.804749 
	C357.638184,630.857239 443.253723,630.861694 528.869202,630.801331 
	C540.256714,630.793274 546.803101,624.666016 546.941772,613.306824 
	C547.228271,589.825256 547.182068,566.336609 546.969177,542.853638 
	C546.882629,533.315125 542.101196,528.306091 531.815186,526.497559 
M338.500000,170.997955 
	C316.845612,170.998093 295.191101,170.961609 273.536835,171.014297 
	C263.195129,171.039459 257.221161,175.470016 255.336411,184.531982 
	C254.833344,186.950790 254.814789,189.499054 254.810211,191.988327 
	C254.771652,212.976471 254.713684,233.965057 254.813156,254.952805 
	C254.883163,269.723419 260.767700,275.487244 275.497437,275.501251 
	C300.316803,275.524841 325.136261,275.508270 349.955658,275.508270 
	C408.922577,275.508301 467.889465,275.516815 526.856384,275.501617 
	C540.958313,275.497986 546.848328,269.711304 547.088928,255.509018 
	C547.229980,247.182693 547.143433,238.852188 547.129272,230.523621 
	C547.105408,216.531967 547.282959,202.534973 546.948914,188.550415 
	C546.680420,177.309418 540.564575,171.505112 529.392639,171.030197 
	C527.729736,170.959503 526.061829,170.998978 524.396240,170.998947 
	C462.764160,170.997772 401.132080,170.997955 338.500000,170.997955 
M373.510559,296.486969 
	C368.768311,296.486969 364.026062,296.486969 359.356262,296.486969 
	C359.356262,366.578644 359.356262,435.797943 359.356262,505.166351 
	C387.223938,505.166351 414.789673,505.166351 442.556702,505.166351 
	C442.556702,435.597473 442.556702,366.375458 442.556702,296.487030 
	C419.717621,296.487030 397.112518,296.487030 373.510559,296.486969 
M296.345520,120.505585 
	C296.345520,130.273453 296.345520,140.041336 296.345520,149.806915 
	C359.398956,149.806915 421.744873,149.806915 484.033539,149.806915 
	C484.033539,133.821655 484.495239,118.181755 483.862946,102.586227 
	C483.474335,93.001869 477.208832,87.980171 467.649200,87.971664 
	C416.193451,87.925850 364.737579,87.923889 313.281830,87.971306 
	C303.628754,87.980202 298.033295,92.913506 296.994110,102.561989 
	C296.390198,108.169174 296.536713,113.857193 296.345520,120.505585 
M470.878052,713.898987 
	C479.481384,711.494263 483.627625,706.958679 484.084320,698.038696 
	C484.586487,688.230713 484.422882,678.387817 484.507507,668.559753 
	C484.554443,663.107910 484.515961,657.655457 484.515961,652.237793 
	C421.482849,652.237793 359.107239,652.237793 296.348694,652.237793 
	C296.348694,665.782715 296.319122,678.923218 296.374786,692.063354 
	C296.385315,694.553467 296.619263,697.057251 296.947021,699.528687 
	C298.166962,708.727661 303.837372,713.994019 313.016174,714.001770 
	C365.341034,714.045898 417.665955,713.993286 470.878052,713.898987 
z"/>
<path fill="#7DD857" opacity="1.000000" stroke="none" 
	d="
M532.246948,526.534790 
	C542.101196,528.306091 546.882629,533.315125 546.969177,542.853638 
	C547.182068,566.336609 547.228271,589.825256 546.941772,613.306824 
	C546.803101,624.666016 540.256714,630.793274 528.869202,630.801331 
	C443.253723,630.861694 357.638184,630.857239 272.022705,630.804749 
	C261.622040,630.798401 255.156952,624.704163 255.013641,613.957336 
	C254.696106,590.143860 254.752747,566.322083 254.967438,542.506470 
	C255.051636,533.164551 259.716553,528.319031 269.044739,526.714844 
	C271.322784,526.323120 273.670532,526.186584 275.986328,526.185913 
	C358.936768,526.159973 441.887207,526.161438 524.837646,526.178101 
	C527.163513,526.178589 529.489319,526.386475 532.246948,526.534790 
z"/>
<path fill="#7DD857" opacity="1.000000" stroke="none" 
	d="
M339.000000,170.997955 
	C401.132080,170.997955 462.764160,170.997772 524.396240,170.998947 
	C526.061829,170.998978 527.729736,170.959503 529.392639,171.030197 
	C540.564575,171.505112 546.680420,177.309418 546.948914,188.550415 
	C547.282959,202.534973 547.105408,216.531967 547.129272,230.523621 
	C547.143433,238.852188 547.229980,247.182693 547.088928,255.509018 
	C546.848328,269.711304 540.958313,275.497986 526.856384,275.501617 
	C467.889465,275.516815 408.922577,275.508301 349.955658,275.508270 
	C325.136261,275.508270 300.316803,275.524841 275.497437,275.501251 
	C260.767700,275.487244 254.883163,269.723419 254.813156,254.952805 
	C254.713684,233.965057 254.771652,212.976471 254.810211,191.988327 
	C254.814789,189.499054 254.833344,186.950790 255.336411,184.531982 
	C257.221161,175.470016 263.195129,171.039459 273.536835,171.014297 
	C295.191101,170.961609 316.845612,170.998093 339.000000,170.997955 
z"/>
<path fill="#7DD756" opacity="1.000000" stroke="none" 
	d="
M374.008972,296.487000 
	C397.112518,296.487030 419.717621,296.487030 442.556702,296.487030 
	C442.556702,366.375458 442.556702,435.597473 442.556702,505.166351 
	C414.789673,505.166351 387.223938,505.166351 359.356262,505.166351 
	C359.356262,435.797943 359.356262,366.578644 359.356262,296.486969 
	C364.026062,296.486969 368.768311,296.486969 374.008972,296.487000 
z"/>
<path fill="#7DD857" opacity="1.000000" stroke="none" 
	d="
M296.345551,120.007210 
	C296.536713,113.857193 296.390198,108.169174 296.994110,102.561989 
	C298.033295,92.913506 303.628754,87.980202 313.281830,87.971306 
	C364.737579,87.923889 416.193451,87.925850 467.649200,87.971664 
	C477.208832,87.980171 483.474335,93.001869 483.862946,102.586227 
	C484.495239,118.181755 484.033539,133.821655 484.033539,149.806915 
	C421.744873,149.806915 359.398956,149.806915 296.345520,149.806915 
	C296.345520,140.041336 296.345520,130.273453 296.345551,120.007210 
z"/>
<path fill="#7DD857" opacity="1.000000" stroke="none" 
	d="
M470.434448,713.936279 
	C417.665955,713.993286 365.341034,714.045898 313.016174,714.001770 
	C303.837372,713.994019 298.166962,708.727661 296.947021,699.528687 
	C296.619263,697.057251 296.385315,694.553467 296.374786,692.063354 
	C296.319122,678.923218 296.348694,665.782715 296.348694,652.237793 
	C359.107239,652.237793 421.482849,652.237793 484.515961,652.237793 
	C484.515961,657.655457 484.554443,663.107910 484.507507,668.559753 
	C484.422882,678.387817 484.586487,688.230713 484.084320,698.038696 
	C483.627625,706.958679 479.481384,711.494263 470.434448,713.936279 
z"/>
</svg>