<svg version="1.1" id="Layer_1" xmlns="http://www.w3.org/2000/svg" xmlns:xlink="http://www.w3.org/1999/xlink" x="0px" y="0px"
	 width="100%" viewBox="0 0 800 800" enable-background="new 0 0 800 800" xml:space="preserve">
<path fill="#FFFFFF" opacity="1.000000" stroke="none" 
	d="
M371.000000,801.000000 
	C247.333328,801.000000 124.166664,801.000000 1.000000,801.000000 
	C1.000000,534.333313 1.000000,267.666656 1.000000,1.000000 
	C267.666656,1.000000 534.333313,1.000000 801.000000,1.000000 
	C801.000000,267.666656 801.000000,534.333313 801.000000,801.000000 
	C657.833313,801.000000 514.666687,801.000000 371.000000,801.000000 
M166.500275,463.477509 
	C149.009796,463.477509 131.519318,463.477051 114.028839,463.477600 
	C102.701675,463.477966 91.372543,463.351227 80.048035,463.525177 
	C72.258568,463.644775 69.981895,466.135101 69.957832,473.832611 
	C69.925545,484.160217 69.927956,494.488068 69.956612,504.815674 
	C69.979073,512.913025 72.578171,515.510010 80.756783,515.513672 
	C121.901024,515.531860 163.045288,515.529419 204.189529,515.515808 
	C212.687469,515.513000 215.304596,513.051880 215.415848,504.605560 
	C215.545258,494.779297 215.506378,484.949524 215.431168,475.122131 
	C215.358582,465.635254 213.162079,463.520569 203.480652,463.488190 
	C191.487320,463.448029 179.493759,463.477936 166.500275,463.477509 
M84.554008,286.829895 
	C83.554497,286.829895 82.554970,286.827301 81.555466,286.830261 
	C72.007309,286.858612 69.968819,288.925323 69.958344,298.635101 
	C69.947922,308.296814 69.939270,317.958557 69.961143,327.620239 
	C69.979912,335.907990 72.694778,338.801453 80.985535,338.812775 
	C122.131042,338.868896 163.276733,338.872955 204.422211,338.807861 
	C212.409378,338.795227 215.269501,335.926880 215.395126,327.937164 
	C215.549637,318.111298 215.503479,308.280609 215.419861,298.453064 
	C215.339005,288.951752 213.103653,286.833710 203.478668,286.832306 
	C164.165482,286.826569 124.852287,286.829895 84.554008,286.829895 
M468.132690,429.499542 
	C468.132690,404.061890 468.132690,378.624237 468.132690,353.057922 
	C460.739716,353.057922 453.825531,353.057922 446.208130,353.057922 
	C446.208130,372.221680 446.208130,391.164642 446.208130,411.480133 
	C444.455597,408.831604 443.542206,407.486053 442.663574,406.118134 
	C431.970642,389.470184 421.310944,372.800629 410.541443,356.202362 
	C409.653809,354.834290 408.074463,353.050720 406.739594,352.983337 
	C400.157471,352.651001 393.549377,352.832214 386.999451,352.832214 
	C386.999451,384.857727 386.999451,416.261780 386.999451,447.783752 
	C394.162201,447.783752 401.077271,447.783752 408.673218,447.783752 
	C408.673218,428.635406 408.673218,409.699219 408.673218,389.369049 
	C410.444824,392.001556 411.373413,393.326691 412.246674,394.687347 
	C422.934448,411.340118 433.586273,428.016113 444.347290,444.621368 
	C445.233551,445.988983 446.801575,447.782318 448.129913,447.849274 
	C454.718994,448.181610 461.333954,448.000824 468.132690,448.000824 
	C468.132690,441.788879 468.132690,436.143921 468.132690,429.499542 
M256.290741,403.836121 
	C265.899384,395.951752 267.779236,385.422333 265.786774,374.016388 
	C263.978546,363.665222 257.163605,356.099579 247.245728,354.708191 
	C232.255356,352.605225 216.930771,352.884521 201.655121,352.146942 
	C201.655121,384.912781 201.655121,416.323242 201.655121,447.785370 
	C208.870728,447.785370 215.802094,447.785370 223.210541,447.785370 
	C223.210541,435.560516 223.210541,423.548004 223.210541,410.368347 
	C232.574112,422.502686 241.166946,433.682983 249.833481,444.805908 
	C250.792786,446.037048 252.145554,447.816742 253.362274,447.854675 
	C261.884827,448.120667 270.419586,447.995544 279.782410,447.995544 
	C268.473389,434.421021 257.883118,421.709290 247.349960,409.066040 
	C250.552597,407.222931 253.129227,405.740112 256.290741,403.836121 
M559.051575,423.397003 
	C551.544617,404.771454 544.065613,386.134552 536.511780,367.528046 
	C534.532410,362.652618 533.556580,355.975250 529.872375,353.574432 
	C526.104980,351.119507 519.565979,353.082794 514.262024,352.756989 
	C511.243744,352.571594 509.987488,353.760284 508.920166,356.445404 
	C500.276398,378.190948 491.477417,399.874847 482.723999,421.576843 
	C479.221466,430.260468 475.714600,438.942352 472.056885,448.003632 
	C479.215240,448.003632 485.712891,448.177490 492.187653,447.869507 
	C493.630890,447.800873 495.677551,446.342010 496.272491,445.002014 
	C498.597351,439.765717 500.451324,434.320374 502.420105,429.112061 
	C514.747559,429.112061 526.557251,429.112061 538.629761,429.112061 
	C540.667297,434.516022 542.583862,439.965332 544.831543,445.274536 
	C545.324890,446.439941 546.969238,447.840424 548.128906,447.882507 
	C554.913635,448.128693 561.711914,448.003296 569.005371,448.003296 
	C565.658630,439.757172 562.486145,431.940613 559.051575,423.397003 
M655.348877,352.827576 
	C652.352844,352.827576 649.327698,353.089478 646.368042,352.761383 
	C642.651306,352.349365 640.947266,353.659668 639.558960,357.257874 
	C633.230347,373.660889 626.505066,389.910919 619.919495,406.214752 
	C614.342285,420.022095 608.760986,433.827759 603.129028,447.764008 
	C611.043396,447.764008 618.512268,447.764008 625.981079,447.764008 
	C628.179016,442.253967 630.279297,436.701050 632.662476,431.272247 
	C633.106567,430.260620 634.678040,429.116516 635.744019,429.101746 
	C647.046570,428.945099 658.352173,429.004639 669.610535,429.004639 
	C671.703064,434.568970 673.603333,439.879150 675.736816,445.093994 
	C676.204346,446.236755 677.475830,447.839844 678.422485,447.871490 
	C685.458740,448.106812 692.506470,447.999176 699.982422,447.999176 
	C687.698059,417.515259 675.615845,387.706177 663.730652,357.818695 
	C662.255920,354.109985 660.500793,351.930634 655.348877,352.827576 
M121.880211,377.499969 
	C121.880211,402.580719 121.880211,427.661469 121.880211,452.778809 
	C135.954819,452.778809 149.615051,452.778809 163.156952,452.778809 
	C163.156952,418.149597 163.156952,383.910339 163.156952,349.419556 
	C149.386841,349.419556 135.839279,349.419556 121.880211,349.419556 
	C121.880211,358.602783 121.880211,367.551361 121.880211,377.499969 
M284.111206,369.502014 
	C284.111206,395.573547 284.111206,421.645050 284.111206,447.740845 
	C302.573090,447.740845 320.468048,447.740845 338.458252,447.740845 
	C338.458252,441.409912 338.458252,435.347778 338.458252,428.798279 
	C327.452179,428.798279 316.727753,428.798279 306.230835,428.798279 
	C306.230835,422.209015 306.230835,416.115417 306.230835,409.682526 
	C316.616211,409.682526 326.708008,409.682526 336.952576,409.682526 
	C336.952576,403.268372 336.952576,397.211121 336.952576,390.791962 
	C326.610352,390.791962 316.524750,390.791962 306.190674,390.791962 
	C306.190674,384.369812 306.190674,378.310333 306.190674,371.691956 
	C317.031921,371.691956 327.735626,371.691956 338.529694,371.691956 
	C338.529694,365.205475 338.529694,359.277344 338.529694,353.199402 
	C320.313873,353.199402 302.316742,353.199402 284.111206,353.199402 
	C284.111206,358.549866 284.111206,363.526733 284.111206,369.502014 
M99.522240,526.000000 
	C96.599663,526.000000 93.677086,526.000000 90.813370,526.000000 
	C90.813370,534.003296 90.595078,541.339172 90.882416,548.655273 
	C91.112442,554.511902 93.939339,556.970825 99.835289,556.981079 
	C124.993576,557.024963 150.152069,557.030823 175.310287,556.975159 
	C180.825546,556.963013 183.769043,554.359375 183.980988,548.848572 
	C184.267487,541.399597 184.052185,533.931274 184.052185,526.000000 
	C156.068741,526.000000 128.294174,526.000000 99.522240,526.000000 
M181.116867,247.063614 
	C179.555145,246.614700 177.994644,245.779419 176.431503,245.774445 
	C150.436890,245.691711 124.441925,245.733322 98.447121,245.691788 
	C93.968292,245.684631 91.277580,248.099640 91.072243,252.177689 
	C90.674835,260.070587 90.956131,267.997681 90.956131,275.838989 
	C122.187569,275.838989 153.080261,275.838989 184.129257,275.838989 
	C184.129257,268.695190 184.338272,261.869019 184.020309,255.067474 
	C183.902863,252.555435 182.544693,250.101410 181.116867,247.063614 
M372.931183,411.500000 
	C372.931183,392.077484 372.931183,372.654968 372.931183,353.160828 
	C365.439178,353.160828 358.409149,353.160828 351.348755,353.160828 
	C351.348755,384.869934 351.348755,416.240814 351.348755,447.692261 
	C358.628906,447.692261 365.669861,447.692261 372.931183,447.692261 
	C372.931183,435.752502 372.931183,424.126251 372.931183,411.500000 
M725.310852,368.501770 
	C725.310852,363.398254 725.310852,358.294739 725.310852,353.081726 
	C717.909607,353.081726 711.010498,353.081726 704.100464,353.081726 
	C704.100464,384.822723 704.100464,416.313995 704.100464,447.699951 
	C711.364502,447.699951 718.284363,447.699951 725.310913,447.699951 
	C725.310913,421.433960 725.310913,395.467407 725.310852,368.501770 
M598.901917,434.034241 
	C597.501099,431.635040 596.480103,428.875519 594.618713,426.913147 
	C590.965271,423.061462 586.197876,422.204834 581.301208,424.159210 
	C576.526001,426.065094 573.399902,429.648071 572.895264,434.967194 
	C572.118958,443.151215 577.582703,449.518372 585.452271,449.777191 
	C593.647827,450.046722 598.976379,444.168762 598.901917,434.034241 
M733.683167,330.240509 
	C734.737793,329.588287 735.792358,328.936096 737.068359,328.147003 
	C733.409058,323.535187 730.062683,319.317749 726.636719,315.000000 
	C718.587341,321.973358 710.948669,328.590851 703.243286,335.266174 
	C705.508667,338.405914 707.531189,341.209076 709.695129,344.208282 
	C717.631897,339.611694 725.364868,335.133118 733.683167,330.240509 
z"/>
<path fill="#040404" opacity="1.000000" stroke="none" 
	d="
M167.000275,463.477539 
	C179.493759,463.477936 191.487320,463.448029 203.480652,463.488190 
	C213.162079,463.520569 215.358582,465.635254 215.431168,475.122131 
	C215.506378,484.949524 215.545258,494.779297 215.415848,504.605560 
	C215.304596,513.051880 212.687469,515.513000 204.189529,515.515808 
	C163.045288,515.529419 121.901024,515.531860 80.756783,515.513672 
	C72.578171,515.510010 69.979073,512.913025 69.956612,504.815674 
	C69.927956,494.488068 69.925545,484.160217 69.957832,473.832611 
	C69.981895,466.135101 72.258568,463.644775 80.048035,463.525177 
	C91.372543,463.351227 102.701675,463.477966 114.028839,463.477600 
	C131.519318,463.477051 149.009796,463.477509 167.000275,463.477539 
z"/>
<path fill="#010101" opacity="1.000000" stroke="none" 
	d="
M85.046555,286.829895 
	C124.852287,286.829895 164.165482,286.826569 203.478668,286.832306 
	C213.103653,286.833710 215.339005,288.951752 215.419861,298.453064 
	C215.503479,308.280609 215.549637,318.111298 215.395126,327.937164 
	C215.269501,335.926880 212.409378,338.795227 204.422211,338.807861 
	C163.276733,338.872955 122.131042,338.868896 80.985535,338.812775 
	C72.694778,338.801453 69.979912,335.907990 69.961143,327.620239 
	C69.939270,317.958557 69.947922,308.296814 69.958344,298.635101 
	C69.968819,288.925323 72.007309,286.858612 81.555466,286.830261 
	C82.554970,286.827301 83.554497,286.829895 85.046555,286.829895 
z"/>
<path fill="#020202" opacity="1.000000" stroke="none" 
	d="
M468.132690,429.999268 
	C468.132690,436.143921 468.132690,441.788879 468.132690,448.000824 
	C461.333954,448.000824 454.718994,448.181610 448.129913,447.849274 
	C446.801575,447.782318 445.233551,445.988983 444.347290,444.621368 
	C433.586273,428.016113 422.934448,411.340118 412.246674,394.687347 
	C411.373413,393.326691 410.444824,392.001556 408.673218,389.369049 
	C408.673218,409.699219 408.673218,428.635406 408.673218,447.783752 
	C401.077271,447.783752 394.162201,447.783752 386.999451,447.783752 
	C386.999451,416.261780 386.999451,384.857727 386.999451,352.832214 
	C393.549377,352.832214 400.157471,352.651001 406.739594,352.983337 
	C408.074463,353.050720 409.653809,354.834290 410.541443,356.202362 
	C421.310944,372.800629 431.970642,389.470184 442.663574,406.118134 
	C443.542206,407.486053 444.455597,408.831604 446.208130,411.480133 
	C446.208130,391.164642 446.208130,372.221680 446.208130,353.057922 
	C453.825531,353.057922 460.739716,353.057922 468.132690,353.057922 
	C468.132690,378.624237 468.132690,404.061890 468.132690,429.999268 
z"/>
<path fill="#040404" opacity="1.000000" stroke="none" 
	d="
M255.998291,404.046692 
	C253.129227,405.740112 250.552597,407.222931 247.349960,409.066040 
	C257.883118,421.709290 268.473389,434.421021 279.782410,447.995544 
	C270.419586,447.995544 261.884827,448.120667 253.362274,447.854675 
	C252.145554,447.816742 250.792786,446.037048 249.833481,444.805908 
	C241.166946,433.682983 232.574112,422.502686 223.210541,410.368347 
	C223.210541,423.548004 223.210541,435.560516 223.210541,447.785370 
	C215.802094,447.785370 208.870728,447.785370 201.655121,447.785370 
	C201.655121,416.323242 201.655121,384.912781 201.655121,352.146942 
	C216.930771,352.884521 232.255356,352.605225 247.245728,354.708191 
	C257.163605,356.099579 263.978546,363.665222 265.786774,374.016388 
	C267.779236,385.422333 265.899384,395.951752 255.998291,404.046692 
M223.077179,382.500977 
	C223.077179,386.593445 223.077179,390.685944 223.077179,395.031158 
	C230.331314,394.758698 237.642914,396.181671 241.982346,389.219177 
	C244.824081,384.659698 244.577332,379.334534 241.454132,375.078766 
	C236.869568,368.831665 229.813416,370.356628 223.077179,369.955353 
	C223.077179,374.249420 223.077179,377.880402 223.077179,382.500977 
z"/>
<path fill="#020202" opacity="1.000000" stroke="none" 
	d="
M559.182617,423.760559 
	C562.486145,431.940613 565.658630,439.757172 569.005371,448.003296 
	C561.711914,448.003296 554.913635,448.128693 548.128906,447.882507 
	C546.969238,447.840424 545.324890,446.439941 544.831543,445.274536 
	C542.583862,439.965332 540.667297,434.516022 538.629761,429.112061 
	C526.557251,429.112061 514.747559,429.112061 502.420105,429.112061 
	C500.451324,434.320374 498.597351,439.765717 496.272491,445.002014 
	C495.677551,446.342010 493.630890,447.800873 492.187653,447.869507 
	C485.712891,448.177490 479.215240,448.003632 472.056885,448.003632 
	C475.714600,438.942352 479.221466,430.260468 482.723999,421.576843 
	C491.477417,399.874847 500.276398,378.190948 508.920166,356.445404 
	C509.987488,353.760284 511.243744,352.571594 514.262024,352.756989 
	C519.565979,353.082794 526.104980,351.119507 529.872375,353.574432 
	C533.556580,355.975250 534.532410,362.652618 536.511780,367.528046 
	C544.065613,386.134552 551.544617,404.771454 559.182617,423.760559 
M524.355652,392.077423 
	C523.178406,389.010803 522.001160,385.944183 520.492004,382.013031 
	C516.762390,391.743286 513.358154,400.624817 509.862518,409.744720 
	C517.120605,409.744720 523.939331,409.744720 531.111328,409.744720 
	C528.896484,403.854126 526.811218,398.308228 524.355652,392.077423 
z"/>
<path fill="#020202" opacity="1.000000" stroke="none" 
	d="
M655.821106,352.827576 
	C660.500793,351.930634 662.255920,354.109985 663.730652,357.818695 
	C675.615845,387.706177 687.698059,417.515259 699.982422,447.999176 
	C692.506470,447.999176 685.458740,448.106812 678.422485,447.871490 
	C677.475830,447.839844 676.204346,446.236755 675.736816,445.093994 
	C673.603333,439.879150 671.703064,434.568970 669.610535,429.004639 
	C658.352173,429.004639 647.046570,428.945099 635.744019,429.101746 
	C634.678040,429.116516 633.106567,430.260620 632.662476,431.272247 
	C630.279297,436.701050 628.179016,442.253967 625.981079,447.764008 
	C618.512268,447.764008 611.043396,447.764008 603.129028,447.764008 
	C608.760986,433.827759 614.342285,420.022095 619.919495,406.214752 
	C626.505066,389.910919 633.230347,373.660889 639.558960,357.257874 
	C640.947266,353.659668 642.651306,352.349365 646.368042,352.761383 
	C649.327698,353.089478 652.352844,352.827576 655.821106,352.827576 
M644.879150,399.323700 
	C643.562866,402.761444 642.246521,406.199188 640.868652,409.797791 
	C648.277893,409.797791 655.006897,409.797791 662.182739,409.797791 
	C658.652222,400.596741 655.249756,391.729492 651.531616,382.039368 
	C649.151245,388.134338 647.113037,393.353088 644.879150,399.323700 
z"/>
<path fill="#010101" opacity="1.000000" stroke="none" 
	d="
M121.880211,376.999939 
	C121.880211,367.551361 121.880211,358.602783 121.880211,349.419556 
	C135.839279,349.419556 149.386841,349.419556 163.156952,349.419556 
	C163.156952,383.910339 163.156952,418.149597 163.156952,452.778809 
	C149.615051,452.778809 135.954819,452.778809 121.880211,452.778809 
	C121.880211,427.661469 121.880211,402.580719 121.880211,376.999939 
z"/>
<path fill="#030303" opacity="1.000000" stroke="none" 
	d="
M284.111206,369.002808 
	C284.111206,363.526733 284.111206,358.549866 284.111206,353.199402 
	C302.316742,353.199402 320.313873,353.199402 338.529694,353.199402 
	C338.529694,359.277344 338.529694,365.205475 338.529694,371.691956 
	C327.735626,371.691956 317.031921,371.691956 306.190674,371.691956 
	C306.190674,378.310333 306.190674,384.369812 306.190674,390.791962 
	C316.524750,390.791962 326.610352,390.791962 336.952576,390.791962 
	C336.952576,397.211121 336.952576,403.268372 336.952576,409.682526 
	C326.708008,409.682526 316.616211,409.682526 306.230835,409.682526 
	C306.230835,416.115417 306.230835,422.209015 306.230835,428.798279 
	C316.727753,428.798279 327.452179,428.798279 338.458252,428.798279 
	C338.458252,435.347778 338.458252,441.409912 338.458252,447.740845 
	C320.468048,447.740845 302.573090,447.740845 284.111206,447.740845 
	C284.111206,421.645050 284.111206,395.573547 284.111206,369.002808 
z"/>
<path fill="#000000" opacity="1.000000" stroke="none" 
	d="
M100.020927,526.000000 
	C128.294174,526.000000 156.068741,526.000000 184.052185,526.000000 
	C184.052185,533.931274 184.267487,541.399597 183.980988,548.848572 
	C183.769043,554.359375 180.825546,556.963013 175.310287,556.975159 
	C150.152069,557.030823 124.993576,557.024963 99.835289,556.981079 
	C93.939339,556.970825 91.112442,554.511902 90.882416,548.655273 
	C90.595078,541.339172 90.813370,534.003296 90.813370,526.000000 
	C93.677086,526.000000 96.599663,526.000000 100.020927,526.000000 
z"/>
<path fill="#000000" opacity="1.000000" stroke="none" 
	d="
M181.434631,247.342270 
	C182.544693,250.101410 183.902863,252.555435 184.020309,255.067474 
	C184.338272,261.869019 184.129257,268.695190 184.129257,275.838989 
	C153.080261,275.838989 122.187569,275.838989 90.956131,275.838989 
	C90.956131,267.997681 90.674835,260.070587 91.072243,252.177689 
	C91.277580,248.099640 93.968292,245.684631 98.447121,245.691788 
	C124.441925,245.733322 150.436890,245.691711 176.431503,245.774445 
	C177.994644,245.779419 179.555145,246.614700 181.434631,247.342270 
z"/>
<path fill="#040404" opacity="1.000000" stroke="none" 
	d="
M372.931183,412.000000 
	C372.931183,424.126251 372.931183,435.752502 372.931183,447.692261 
	C365.669861,447.692261 358.628906,447.692261 351.348755,447.692261 
	C351.348755,416.240814 351.348755,384.869934 351.348755,353.160828 
	C358.409149,353.160828 365.439178,353.160828 372.931183,353.160828 
	C372.931183,372.654968 372.931183,392.077484 372.931183,412.000000 
z"/>
<path fill="#000000" opacity="1.000000" stroke="none" 
	d="
M725.310913,369.001312 
	C725.310913,395.467407 725.310913,421.433960 725.310913,447.699951 
	C718.284363,447.699951 711.364502,447.699951 704.100464,447.699951 
	C704.100464,416.313995 704.100464,384.822723 704.100464,353.081726 
	C711.010498,353.081726 717.909607,353.081726 725.310852,353.081726 
	C725.310852,358.294739 725.310852,363.398254 725.310913,369.001312 
z"/>
<path fill="#050505" opacity="1.000000" stroke="none" 
	d="
M598.939819,434.445740 
	C598.976379,444.168762 593.647827,450.046722 585.452271,449.777191 
	C577.582703,449.518372 572.118958,443.151215 572.895264,434.967194 
	C573.399902,429.648071 576.526001,426.065094 581.301208,424.159210 
	C586.197876,422.204834 590.965271,423.061462 594.618713,426.913147 
	C596.480103,428.875519 597.501099,431.635040 598.939819,434.445740 
z"/>
<path fill="#070707" opacity="1.000000" stroke="none" 
	d="
M733.390503,330.447510 
	C725.364868,335.133118 717.631897,339.611694 709.695129,344.208282 
	C707.531189,341.209076 705.508667,338.405914 703.243286,335.266174 
	C710.948669,328.590851 718.587341,321.973358 726.636719,315.000000 
	C730.062683,319.317749 733.409058,323.535187 737.068359,328.147003 
	C735.792358,328.936096 734.737793,329.588287 733.390503,330.447510 
z"/>
<path fill="#F9F9F9" opacity="1.000000" stroke="none" 
	d="
M223.077179,382.006165 
	C223.077179,377.880402 223.077179,374.249420 223.077179,369.955353 
	C229.813416,370.356628 236.869568,368.831665 241.454132,375.078766 
	C244.577332,379.334534 244.824081,384.659698 241.982346,389.219177 
	C237.642914,396.181671 230.331314,394.758698 223.077179,395.031158 
	C223.077179,390.685944 223.077179,386.593445 223.077179,382.006165 
z"/>
<path fill="#F9F9F9" opacity="1.000000" stroke="none" 
	d="
M524.540833,392.419861 
	C526.811218,398.308228 528.896484,403.854126 531.111328,409.744720 
	C523.939331,409.744720 517.120605,409.744720 509.862518,409.744720 
	C513.358154,400.624817 516.762390,391.743286 520.492004,382.013031 
	C522.001160,385.944183 523.178406,389.010803 524.540833,392.419861 
z"/>
<path fill="#F9F9F9" opacity="1.000000" stroke="none" 
	d="
M644.977051,398.947754 
	C647.113037,393.353088 649.151245,388.134338 651.531616,382.039368 
	C655.249756,391.729492 658.652222,400.596741 662.182739,409.797791 
	C655.006897,409.797791 648.277893,409.797791 640.868652,409.797791 
	C642.246521,406.199188 643.562866,402.761444 644.977051,398.947754 
z"/>
</svg>