<svg version="1.1" id="Layer_1" xmlns="http://www.w3.org/2000/svg" xmlns:xlink="http://www.w3.org/1999/xlink" x="0px" y="0px"
	 width="100%" viewBox="0 0 800 800" enable-background="new 0 0 800 800" xml:space="preserve">
<path fill="#000000" opacity="1.000000" stroke="none" 
	d="
M452.000000,801.000000 
	C301.333344,801.000000 151.166672,801.000000 1.000000,801.000000 
	C1.000000,534.333313 1.000000,267.666656 1.000000,1.000000 
	C267.666656,1.000000 534.333313,1.000000 801.000000,1.000000 
	C801.000000,267.666656 801.000000,534.333313 801.000000,801.000000 
	C684.833313,801.000000 568.666687,801.000000 452.000000,801.000000 
M531.820068,526.494446 
	C529.494080,526.383301 527.168091,526.175537 524.842102,526.175049 
	C441.874786,526.158386 358.907501,526.161133 275.940186,526.161621 
	C274.607391,526.161621 273.268494,526.084290 271.942719,526.182068 
	C261.549957,526.948914 255.248932,531.889526 255.111145,541.023499 
	C254.739365,565.671448 254.717804,590.333069 255.116058,614.980225 
	C255.278214,625.014893 261.992615,630.807861 272.013336,630.813049 
	C357.646271,630.857666 443.279205,630.863892 528.912109,630.808167 
	C540.256042,630.800781 546.819092,624.635010 546.950134,613.293884 
	C547.221375,589.807129 547.178711,566.313965 546.971375,542.825989 
	C546.887390,533.303650 542.125061,528.305969 531.820068,526.494446 
M338.500000,170.997940 
	C316.674042,170.997971 294.847778,170.933548 273.022217,171.024567 
	C261.663177,171.071930 255.423767,177.202560 254.888885,188.470871 
	C254.817810,189.968063 254.784271,191.468460 254.783768,192.967392 
	C254.777008,213.293900 254.757324,233.620453 254.804291,253.946854 
	C254.810806,256.766907 254.795151,259.668152 255.412018,262.390869 
	C257.511353,271.656830 263.528625,275.505890 275.457886,275.506836 
	C359.263092,275.513489 443.068268,275.510529 526.873474,275.510315 
	C527.873108,275.510284 528.875244,275.550598 529.872070,275.496613 
	C540.296692,274.932190 546.662903,269.407043 546.838806,259.017487 
	C547.241882,235.201187 547.224915,211.369370 546.849670,187.552185 
	C546.685852,177.156921 540.392883,171.632431 529.933594,171.064560 
	C528.272034,170.974350 526.603210,171.000397 524.937744,171.000320 
	C463.125153,170.997498 401.312592,170.997940 338.500000,170.997940 
M373.508362,296.484711 
	C368.749298,296.484711 363.990265,296.484711 359.237488,296.484711 
	C359.237488,366.473694 359.237488,435.741852 359.237488,505.154236 
	C387.141846,505.154236 414.861572,505.154236 442.575958,505.154236 
	C442.575958,435.537872 442.575958,366.282806 442.575958,296.484741 
	C419.740753,296.484741 397.123352,296.484741 373.508362,296.484711 
M296.340851,120.505203 
	C296.340851,130.290527 296.340851,140.075851 296.340851,149.881042 
	C359.322754,149.881042 421.735687,149.881042 484.048981,149.881042 
	C484.048981,133.958435 484.488190,118.308556 483.886932,102.698738 
	C483.516754,93.088211 477.279175,87.982552 467.773468,87.973976 
	C416.276917,87.927528 364.780273,87.927216 313.283722,87.970749 
	C303.624786,87.978912 298.013062,92.917763 296.994110,102.548584 
	C296.400177,108.162003 296.534302,113.852463 296.340851,120.505203 
M470.885925,713.914368 
	C478.659149,712.521179 483.467926,707.427795 483.775146,700.057495 
	C484.438934,684.134155 483.979401,668.163879 483.979401,652.059082 
	C421.632812,652.059082 359.224976,652.059082 296.341278,652.059082 
	C296.341278,665.570923 296.302368,678.859741 296.372559,692.148010 
	C296.387482,694.969177 296.605682,697.820374 297.066254,700.602112 
	C298.466980,709.062378 304.247375,714.001831 313.056641,714.007812 
	C365.370209,714.043518 417.683838,713.998352 470.885925,713.914368 
z"/>
<path fill="#FEFEFE" opacity="1.000000" stroke="none" 
	d="
M532.252258,526.526367 
	C542.125061,528.305969 546.887390,533.303650 546.971375,542.825989 
	C547.178711,566.313965 547.221375,589.807129 546.950134,613.293884 
	C546.819092,624.635010 540.256042,630.800781 528.912109,630.808167 
	C443.279205,630.863892 357.646271,630.857666 272.013336,630.813049 
	C261.992615,630.807861 255.278214,625.014893 255.116058,614.980225 
	C254.717804,590.333069 254.739365,565.671448 255.111145,541.023499 
	C255.248932,531.889526 261.549957,526.948914 271.942719,526.182068 
	C273.268494,526.084290 274.607391,526.161621 275.940186,526.161621 
	C358.907501,526.161133 441.874786,526.158386 524.842102,526.175049 
	C527.168091,526.175537 529.494080,526.383301 532.252258,526.526367 
z"/>
<path fill="#FEFEFE" opacity="1.000000" stroke="none" 
	d="
M339.000000,170.997940 
	C401.312592,170.997940 463.125153,170.997498 524.937744,171.000320 
	C526.603210,171.000397 528.272034,170.974350 529.933594,171.064560 
	C540.392883,171.632431 546.685852,177.156921 546.849670,187.552185 
	C547.224915,211.369370 547.241882,235.201187 546.838806,259.017487 
	C546.662903,269.407043 540.296692,274.932190 529.872070,275.496613 
	C528.875244,275.550598 527.873108,275.510284 526.873474,275.510315 
	C443.068268,275.510529 359.263092,275.513489 275.457886,275.506836 
	C263.528625,275.505890 257.511353,271.656830 255.412018,262.390869 
	C254.795151,259.668152 254.810806,256.766907 254.804291,253.946854 
	C254.757324,233.620453 254.777008,213.293900 254.783768,192.967392 
	C254.784271,191.468460 254.817810,189.968063 254.888885,188.470871 
	C255.423767,177.202560 261.663177,171.071930 273.022217,171.024567 
	C294.847778,170.933548 316.674042,170.997971 339.000000,170.997940 
z"/>
<path fill="#FDFDFD" opacity="1.000000" stroke="none" 
	d="
M374.007141,296.484741 
	C397.123352,296.484741 419.740753,296.484741 442.575958,296.484741 
	C442.575958,366.282806 442.575958,435.537872 442.575958,505.154236 
	C414.861572,505.154236 387.141846,505.154236 359.237488,505.154236 
	C359.237488,435.741852 359.237488,366.473694 359.237488,296.484711 
	C363.990265,296.484711 368.749298,296.484711 374.007141,296.484741 
z"/>
<path fill="#FEFEFE" opacity="1.000000" stroke="none" 
	d="
M296.340851,120.006729 
	C296.534302,113.852463 296.400177,108.162003 296.994110,102.548584 
	C298.013062,92.917763 303.624786,87.978912 313.283722,87.970749 
	C364.780273,87.927216 416.276917,87.927528 467.773468,87.973976 
	C477.279175,87.982552 483.516754,93.088211 483.886932,102.698738 
	C484.488190,118.308556 484.048981,133.958435 484.048981,149.881042 
	C421.735687,149.881042 359.322754,149.881042 296.340851,149.881042 
	C296.340851,140.075851 296.340851,130.290527 296.340851,120.006729 
z"/>
<path fill="#FEFEFE" opacity="1.000000" stroke="none" 
	d="
M470.441711,713.947388 
	C417.683838,713.998352 365.370209,714.043518 313.056641,714.007812 
	C304.247375,714.001831 298.466980,709.062378 297.066254,700.602112 
	C296.605682,697.820374 296.387482,694.969177 296.372559,692.148010 
	C296.302368,678.859741 296.341278,665.570923 296.341278,652.059082 
	C359.224976,652.059082 421.632812,652.059082 483.979401,652.059082 
	C483.979401,668.163879 484.438934,684.134155 483.775146,700.057495 
	C483.467926,707.427795 478.659149,712.521179 470.441711,713.947388 
z"/>
</svg>