<svg version="1.1" id="Layer_1" xmlns="http://www.w3.org/2000/svg" xmlns:xlink="http://www.w3.org/1999/xlink" x="0px" y="0px"
	 width="100%" viewBox="0 0 800 800" enable-background="new 0 0 800 800" xml:space="preserve">
<path fill="#000000" opacity="1.000000" stroke="none" 
	d="
M374.000000,801.000000 
	C249.333328,801.000000 125.166664,801.000000 1.000000,801.000000 
	C1.000000,534.333313 1.000000,267.666656 1.000000,1.000000 
	C267.666656,1.000000 534.333313,1.000000 801.000000,1.000000 
	C801.000000,267.666656 801.000000,534.333313 801.000000,801.000000 
	C658.833313,801.000000 516.666687,801.000000 374.000000,801.000000 
M169.500061,463.159546 
	C140.171982,463.159576 110.843857,463.135040 81.515823,463.174591 
	C72.689674,463.186493 70.131119,465.733490 70.081802,474.415771 
	C70.025017,484.413666 70.004799,494.412720 70.091980,504.410156 
	C70.162758,512.526489 72.878479,515.164734 80.939308,515.166870 
	C122.265266,515.177673 163.591217,515.178711 204.917175,515.165833 
	C212.718292,515.163391 215.451355,512.650085 215.593445,504.741028 
	C215.778992,494.412994 215.802277,484.075592 215.585617,473.748749 
	C215.413651,465.552124 212.831345,463.228516 204.493912,463.177429 
	C193.163025,463.108002 181.831406,463.159760 169.500061,463.159546 
M215.073578,332.236664 
	C215.213577,319.934296 215.653305,307.625092 215.371124,295.332397 
	C215.222961,288.877930 212.205032,286.843109 204.994568,286.839233 
	C163.539917,286.816956 122.085266,286.814819 80.630638,286.841644 
	C72.907227,286.846649 70.192101,289.539185 70.098953,297.381226 
	C69.990204,306.536591 70.067871,315.694214 70.068489,324.850861 
	C70.069290,336.598236 72.291832,338.836029 84.035439,338.837952 
	C123.325790,338.844391 162.616135,338.844574 201.906494,338.827118 
	C203.730789,338.826324 205.558380,338.672455 207.378510,338.519287 
	C210.987915,338.215546 213.713104,336.652618 215.073578,332.236664 
M386.669647,356.813660 
	C386.669647,387.114502 386.669647,417.415344 386.669647,447.858948 
	C394.035767,447.858948 400.999847,447.858948 408.664185,447.858948 
	C408.664185,428.786835 408.664185,409.836182 408.664185,389.408661 
	C410.463196,392.108429 411.376648,393.436340 412.247009,394.791870 
	C422.939087,411.444061 433.595551,428.119385 444.367065,444.720001 
	C445.243927,446.071411 446.853455,447.788849 448.195404,447.854797 
	C454.787781,448.178772 461.404755,448.001862 467.946899,448.001862 
	C467.946899,415.998169 467.946899,384.574371 467.946899,353.159485 
	C460.680969,353.159485 453.656525,353.159485 446.067932,353.159485 
	C446.067932,372.354126 446.067932,391.161377 446.067932,411.344421 
	C436.129456,395.856750 427.018494,381.600922 417.840729,367.388214 
	C414.701447,362.526703 412.394135,355.906128 407.885071,353.492828 
	C403.329163,351.054474 396.515564,352.833954 390.691010,352.767334 
	C390.191193,352.761627 389.477692,352.556122 389.229431,352.806396 
	C388.294250,353.749359 387.510468,354.842438 386.669647,356.813660 
M261.145386,363.433838 
	C256.162384,360.309082 251.430847,355.094269 246.148376,354.458771 
	C231.404282,352.684906 216.431961,352.807861 201.507675,352.180267 
	C201.507675,384.743256 201.507675,416.150482 201.507675,447.733704 
	C208.785950,447.733704 215.836594,447.733704 223.417511,447.733704 
	C223.417511,435.539185 223.417511,423.609955 223.417511,410.716949 
	C232.621765,422.649261 241.117920,433.729980 249.719849,444.727966 
	C250.753204,446.049072 252.329529,447.808685 253.706528,447.856476 
	C262.092255,448.147430 270.493134,448.001709 279.852020,448.001709 
	C268.613708,434.512787 258.050140,421.833710 247.411636,409.064758 
	C266.720367,398.996582 271.974915,381.788696 261.145386,363.433838 
M508.076996,358.480621 
	C496.101532,388.190979 484.126068,417.901337 472.108154,447.717041 
	C480.384613,447.717041 487.988708,447.717041 495.486053,447.717041 
	C497.848602,441.386902 500.105255,435.340485 502.406708,429.173950 
	C514.448364,429.173950 526.404053,429.173950 538.583313,429.173950 
	C540.958679,435.443817 543.337158,441.721771 545.678345,447.901245 
	C553.585449,447.901245 561.061401,447.901245 568.833252,447.901245 
	C568.331787,446.509644 567.931702,445.274200 567.447021,444.072876 
	C557.020996,418.229584 546.588440,392.388947 536.149170,366.550995 
	C534.346741,362.089813 533.683167,355.839050 530.367493,353.680115 
	C526.812805,351.365601 520.718323,353.188995 515.786682,352.679474 
	C511.591248,352.246063 509.275696,353.756805 508.076996,358.480621 
M680.030396,398.406372 
	C675.881592,388.096802 671.777649,377.768860 667.564392,367.485718 
	C665.568726,362.614960 664.598145,355.940094 660.910583,353.532104 
	C657.146851,351.074371 650.612610,353.002686 645.308594,352.703888 
	C642.365417,352.538086 640.999146,353.552734 639.904846,356.322937 
	C632.285767,375.609528 624.473999,394.820068 616.711914,414.050140 
	C612.192200,425.247559 607.650085,436.435944 603.044189,447.810638 
	C611.111267,447.810638 618.731506,447.810638 626.430420,447.810638 
	C628.796143,441.505615 631.108887,435.341614 633.427185,429.162903 
	C645.623535,429.162903 657.580444,429.162903 669.615662,429.162903 
	C671.629272,434.542969 673.488647,439.856842 675.655151,445.042419 
	C676.160767,446.252625 677.678833,447.830231 678.782227,447.871460 
	C685.704407,448.130341 692.640930,448.002350 700.081116,448.002350 
	C693.345215,431.370026 686.817627,415.252228 680.030396,398.406372 
M133.518677,348.995270 
	C129.755966,348.995270 125.993256,348.995270 122.290558,348.995270 
	C122.290558,383.966644 122.290558,418.330505 122.290558,452.788452 
	C136.117142,452.788452 149.687317,452.788452 163.488510,452.788452 
	C163.488510,418.211945 163.488510,383.851501 163.488510,348.995270 
	C153.713760,348.995270 144.112900,348.995270 133.518677,348.995270 
M325.489136,448.004730 
	C329.892883,448.004730 334.296631,448.004730 338.569489,448.004730 
	C338.569489,441.264221 338.569489,435.328705 338.569489,428.917114 
	C327.614990,428.917114 316.893463,428.917114 306.202728,428.917114 
	C306.202728,422.347809 306.202728,416.265778 306.202728,409.675476 
	C316.652405,409.675476 326.864990,409.675476 336.943237,409.675476 
	C336.943237,403.087463 336.943237,397.018524 336.943237,390.608887 
	C326.509064,390.608887 316.416626,390.608887 306.252502,390.608887 
	C306.252502,384.189148 306.252502,378.131287 306.252502,371.731506 
	C317.136902,371.731506 327.728058,371.731506 338.556458,371.731506 
	C338.556458,365.320923 338.556458,359.258453 338.556458,353.151123 
	C320.290131,353.151123 302.280151,353.151123 284.349823,353.151123 
	C284.349823,384.926086 284.349823,416.313873 284.349823,448.004730 
	C297.909912,448.004730 311.201630,448.004730 325.489136,448.004730 
M141.499939,556.840698 
	C152.662018,556.840576 163.824600,556.904297 174.985947,556.813782 
	C180.697556,556.767456 183.833923,554.311096 184.070160,549.056396 
	C184.412582,541.439880 184.157898,533.796509 184.157898,526.101318 
	C153.032532,526.101318 122.134171,526.101318 90.943710,526.101318 
	C90.943710,533.006409 90.890434,539.642761 90.957634,546.277893 
	C91.035995,554.015259 93.854294,556.817688 101.515968,556.833374 
	C114.510567,556.860046 127.505257,556.840698 141.499939,556.840698 
M90.945656,272.401184 
	C91.056137,273.643494 91.166618,274.885803 91.260651,275.943115 
	C122.459320,275.943115 153.201904,275.943115 184.240311,275.943115 
	C184.240311,268.450287 184.457809,261.167511 184.173523,253.904358 
	C183.933289,247.767258 181.624802,245.692673 175.329086,245.673019 
	C150.199783,245.594589 125.069946,245.590363 99.940674,245.673523 
	C93.521309,245.694763 91.130219,248.285477 90.982986,254.945709 
	C90.861633,260.434998 90.950134,265.928925 90.945656,272.401184 
M351.081604,444.309662 
	C351.706116,445.539307 352.288269,447.809937 352.961639,447.837280 
	C359.547729,448.105042 366.149078,447.998596 372.713501,447.998596 
	C372.713501,415.972229 372.713501,384.552032 372.713501,353.104523 
	C365.425232,353.104523 358.382660,353.104523 351.081573,353.104523 
	C351.081573,383.411285 351.081573,413.378540 351.081604,444.309662 
M725.415039,443.471008 
	C725.415039,413.395233 725.415039,383.319458 725.415039,353.095551 
	C717.957703,353.095551 710.920776,353.095551 703.869385,353.095551 
	C703.869385,384.808136 703.869385,416.197052 703.869385,447.724884 
	C711.134338,447.724884 718.205933,447.724884 725.414917,447.724884 
	C725.414917,446.455017 725.414917,445.459961 725.415039,443.471008 
M598.213684,431.705841 
	C597.429932,430.440948 596.785767,429.058716 595.838135,427.931610 
	C591.799683,423.128662 585.514465,421.844452 580.079102,424.600067 
	C574.567200,427.394470 571.726562,433.462219 573.030640,439.655945 
	C574.246765,445.432343 579.495850,449.701324 585.556335,449.845062 
	C595.197815,450.073761 601.103210,440.998474 598.213684,431.705841 
M729.424683,332.881775 
	C731.916870,331.368774 734.409058,329.855743 737.161194,328.184937 
	C733.509644,323.576172 730.132385,319.313599 726.653076,314.922211 
	C718.651733,321.850159 710.915955,328.548187 703.166260,335.258240 
	C705.487122,338.480743 707.506470,341.284576 709.681763,344.304901 
	C716.195618,340.507294 722.478394,336.844421 729.424683,332.881775 
z"/>
<path fill="#FDFDFD" opacity="1.000000" stroke="none" 
	d="
M170.000076,463.159546 
	C181.831406,463.159760 193.163025,463.108002 204.493912,463.177429 
	C212.831345,463.228516 215.413651,465.552124 215.585617,473.748749 
	C215.802277,484.075592 215.778992,494.412994 215.593445,504.741028 
	C215.451355,512.650085 212.718292,515.163391 204.917175,515.165833 
	C163.591217,515.178711 122.265266,515.177673 80.939308,515.166870 
	C72.878479,515.164734 70.162758,512.526489 70.091980,504.410156 
	C70.004799,494.412720 70.025017,484.413666 70.081802,474.415771 
	C70.131119,465.733490 72.689674,463.186493 81.515823,463.174591 
	C110.843857,463.135040 140.171982,463.159576 170.000076,463.159546 
z"/>
<path fill="#FDFDFD" opacity="1.000000" stroke="none" 
	d="
M215.002151,332.635864 
	C213.713104,336.652618 210.987915,338.215546 207.378510,338.519287 
	C205.558380,338.672455 203.730789,338.826324 201.906494,338.827118 
	C162.616135,338.844574 123.325790,338.844391 84.035439,338.837952 
	C72.291832,338.836029 70.069290,336.598236 70.068489,324.850861 
	C70.067871,315.694214 69.990204,306.536591 70.098953,297.381226 
	C70.192101,289.539185 72.907227,286.846649 80.630638,286.841644 
	C122.085266,286.814819 163.539917,286.816956 204.994568,286.839233 
	C212.205032,286.843109 215.222961,288.877930 215.371124,295.332397 
	C215.653305,307.625092 215.213577,319.934296 215.002151,332.635864 
z"/>
<path fill="#FDFDFD" opacity="1.000000" stroke="none" 
	d="
M386.669800,356.346497 
	C387.510468,354.842438 388.294250,353.749359 389.229431,352.806396 
	C389.477692,352.556122 390.191193,352.761627 390.691010,352.767334 
	C396.515564,352.833954 403.329163,351.054474 407.885071,353.492828 
	C412.394135,355.906128 414.701447,362.526703 417.840729,367.388214 
	C427.018494,381.600922 436.129456,395.856750 446.067932,411.344421 
	C446.067932,391.161377 446.067932,372.354126 446.067932,353.159485 
	C453.656525,353.159485 460.680969,353.159485 467.946899,353.159485 
	C467.946899,384.574371 467.946899,415.998169 467.946899,448.001862 
	C461.404755,448.001862 454.787781,448.178772 448.195404,447.854797 
	C446.853455,447.788849 445.243927,446.071411 444.367065,444.720001 
	C433.595551,428.119385 422.939087,411.444061 412.247009,394.791870 
	C411.376648,393.436340 410.463196,392.108429 408.664185,389.408661 
	C408.664185,409.836182 408.664185,428.786835 408.664185,447.858948 
	C400.999847,447.858948 394.035767,447.858948 386.669647,447.858948 
	C386.669647,417.415344 386.669647,387.114502 386.669800,356.346497 
z"/>
<path fill="#FCFCFC" opacity="1.000000" stroke="none" 
	d="
M261.384827,363.704620 
	C271.974915,381.788696 266.720367,398.996582 247.411636,409.064758 
	C258.050140,421.833710 268.613708,434.512787 279.852020,448.001709 
	C270.493134,448.001709 262.092255,448.147430 253.706528,447.856476 
	C252.329529,447.808685 250.753204,446.049072 249.719849,444.727966 
	C241.117920,433.729980 232.621765,422.649261 223.417511,410.716949 
	C223.417511,423.609955 223.417511,435.539185 223.417511,447.733704 
	C215.836594,447.733704 208.785950,447.733704 201.507675,447.733704 
	C201.507675,416.150482 201.507675,384.743256 201.507675,352.180267 
	C216.431961,352.807861 231.404282,352.684906 246.148376,354.458771 
	C251.430847,355.094269 256.162384,360.309082 261.384827,363.704620 
M223.758728,394.849854 
	C227.874908,394.501526 232.065536,394.522766 236.088684,393.712524 
	C241.266525,392.669708 243.132233,388.612854 243.517899,383.730774 
	C243.969162,378.018280 241.840973,373.164368 237.318665,371.840302 
	C232.862183,370.535553 228.093353,370.297729 223.171906,369.547607 
	C223.171906,378.495514 223.171906,386.307343 223.758728,394.849854 
z"/>
<path fill="#FDFDFD" opacity="1.000000" stroke="none" 
	d="
M508.215942,358.107239 
	C509.275696,353.756805 511.591248,352.246063 515.786682,352.679474 
	C520.718323,353.188995 526.812805,351.365601 530.367493,353.680115 
	C533.683167,355.839050 534.346741,362.089813 536.149170,366.550995 
	C546.588440,392.388947 557.020996,418.229584 567.447021,444.072876 
	C567.931702,445.274200 568.331787,446.509644 568.833252,447.901245 
	C561.061401,447.901245 553.585449,447.901245 545.678345,447.901245 
	C543.337158,441.721771 540.958679,435.443817 538.583313,429.173950 
	C526.404053,429.173950 514.448364,429.173950 502.406708,429.173950 
	C500.105255,435.340485 497.848602,441.386902 495.486053,447.717041 
	C487.988708,447.717041 480.384613,447.717041 472.108154,447.717041 
	C484.126068,417.901337 496.101532,388.190979 508.215942,358.107239 
M522.994751,388.508698 
	C522.243958,386.689301 521.493225,384.869873 520.420227,382.269409 
	C516.706909,392.010895 513.354248,400.806152 509.899689,409.868896 
	C517.122314,409.868896 523.895569,409.868896 531.147400,409.868896 
	C528.429138,402.813080 525.816711,396.031952 522.994751,388.508698 
z"/>
<path fill="#FDFDFD" opacity="1.000000" stroke="none" 
	d="
M680.160278,398.770386 
	C686.817627,415.252228 693.345215,431.370026 700.081116,448.002350 
	C692.640930,448.002350 685.704407,448.130341 678.782227,447.871460 
	C677.678833,447.830231 676.160767,446.252625 675.655151,445.042419 
	C673.488647,439.856842 671.629272,434.542969 669.615662,429.162903 
	C657.580444,429.162903 645.623535,429.162903 633.427185,429.162903 
	C631.108887,435.341614 628.796143,441.505615 626.430420,447.810638 
	C618.731506,447.810638 611.111267,447.810638 603.044189,447.810638 
	C607.650085,436.435944 612.192200,425.247559 616.711914,414.050140 
	C624.473999,394.820068 632.285767,375.609528 639.904846,356.322937 
	C640.999146,353.552734 642.365417,352.538086 645.308594,352.703888 
	C650.612610,353.002686 657.146851,351.074371 660.910583,353.532104 
	C664.598145,355.940094 665.568726,362.614960 667.564392,367.485718 
	C671.777649,377.768860 675.881592,388.096802 680.160278,398.770386 
M661.637756,409.820343 
	C658.432617,400.824524 655.227478,391.828705 651.634521,381.744324 
	C647.790100,391.815521 644.386169,400.732605 640.852661,409.989319 
	C647.835754,409.989319 654.312744,409.989319 661.637756,409.820343 
z"/>
<path fill="#FCFCFC" opacity="1.000000" stroke="none" 
	d="
M134.015366,348.995270 
	C144.112900,348.995270 153.713760,348.995270 163.488510,348.995270 
	C163.488510,383.851501 163.488510,418.211945 163.488510,452.788452 
	C149.687317,452.788452 136.117142,452.788452 122.290558,452.788452 
	C122.290558,418.330505 122.290558,383.966644 122.290558,348.995270 
	C125.993256,348.995270 129.755966,348.995270 134.015366,348.995270 
z"/>
<path fill="#FCFCFC" opacity="1.000000" stroke="none" 
	d="
M324.991211,448.004730 
	C311.201630,448.004730 297.909912,448.004730 284.349823,448.004730 
	C284.349823,416.313873 284.349823,384.926086 284.349823,353.151123 
	C302.280151,353.151123 320.290131,353.151123 338.556458,353.151123 
	C338.556458,359.258453 338.556458,365.320923 338.556458,371.731506 
	C327.728058,371.731506 317.136902,371.731506 306.252502,371.731506 
	C306.252502,378.131287 306.252502,384.189148 306.252502,390.608887 
	C316.416626,390.608887 326.509064,390.608887 336.943237,390.608887 
	C336.943237,397.018524 336.943237,403.087463 336.943237,409.675476 
	C326.864990,409.675476 316.652405,409.675476 306.202728,409.675476 
	C306.202728,416.265778 306.202728,422.347809 306.202728,428.917114 
	C316.893463,428.917114 327.614990,428.917114 338.569489,428.917114 
	C338.569489,435.328705 338.569489,441.264221 338.569489,448.004730 
	C334.296631,448.004730 329.892883,448.004730 324.991211,448.004730 
z"/>
<path fill="#FDFDFD" opacity="1.000000" stroke="none" 
	d="
M140.999924,556.840698 
	C127.505257,556.840698 114.510567,556.860046 101.515968,556.833374 
	C93.854294,556.817688 91.035995,554.015259 90.957634,546.277893 
	C90.890434,539.642761 90.943710,533.006409 90.943710,526.101318 
	C122.134171,526.101318 153.032532,526.101318 184.157898,526.101318 
	C184.157898,533.796509 184.412582,541.439880 184.070160,549.056396 
	C183.833923,554.311096 180.697556,556.767456 174.985947,556.813782 
	C163.824600,556.904297 152.662018,556.840576 140.999924,556.840698 
z"/>
<path fill="#FFFFFF" opacity="1.000000" stroke="none" 
	d="
M90.945648,271.910980 
	C90.950134,265.928925 90.861633,260.434998 90.982986,254.945709 
	C91.130219,248.285477 93.521309,245.694763 99.940674,245.673523 
	C125.069946,245.590363 150.199783,245.594589 175.329086,245.673019 
	C181.624802,245.692673 183.933289,247.767258 184.173523,253.904358 
	C184.457809,261.167511 184.240311,268.450287 184.240311,275.943115 
	C153.201904,275.943115 122.459320,275.943115 91.260651,275.943115 
	C91.166618,274.885803 91.056137,273.643494 90.945648,271.910980 
z"/>
<path fill="#FCFCFC" opacity="1.000000" stroke="none" 
	d="
M351.081604,443.827698 
	C351.081573,413.378540 351.081573,383.411285 351.081573,353.104523 
	C358.382660,353.104523 365.425232,353.104523 372.713501,353.104523 
	C372.713501,384.552032 372.713501,415.972229 372.713501,447.998596 
	C366.149078,447.998596 359.547729,448.105042 352.961639,447.837280 
	C352.288269,447.809937 351.706116,445.539307 351.081604,443.827698 
z"/>
<path fill="#FFFFFF" opacity="1.000000" stroke="none" 
	d="
M725.414978,443.967957 
	C725.414917,445.459961 725.414917,446.455017 725.414917,447.724884 
	C718.205933,447.724884 711.134338,447.724884 703.869385,447.724884 
	C703.869385,416.197052 703.869385,384.808136 703.869385,353.095551 
	C710.920776,353.095551 717.957703,353.095551 725.415039,353.095551 
	C725.415039,383.319458 725.415039,413.395233 725.414978,443.967957 
z"/>
<path fill="#F9F9F9" opacity="1.000000" stroke="none" 
	d="
M598.402100,432.064148 
	C601.103210,440.998474 595.197815,450.073761 585.556335,449.845062 
	C579.495850,449.701324 574.246765,445.432343 573.030640,439.655945 
	C571.726562,433.462219 574.567200,427.394470 580.079102,424.600067 
	C585.514465,421.844452 591.799683,423.128662 595.838135,427.931610 
	C596.785767,429.058716 597.429932,430.440948 598.402100,432.064148 
z"/>
<path fill="#F8F8F8" opacity="1.000000" stroke="none" 
	d="
M729.092896,333.031647 
	C722.478394,336.844421 716.195618,340.507294 709.681763,344.304901 
	C707.506470,341.284576 705.487122,338.480743 703.166260,335.258240 
	C710.915955,328.548187 718.651733,321.850159 726.653076,314.922211 
	C730.132385,319.313599 733.509644,323.576172 737.161194,328.184937 
	C734.409058,329.855743 731.916870,331.368774 729.092896,333.031647 
z"/>
<path fill="#050505" opacity="1.000000" stroke="none" 
	d="
M223.465317,394.484497 
	C223.171906,386.307343 223.171906,378.495514 223.171906,369.547607 
	C228.093353,370.297729 232.862183,370.535553 237.318665,371.840302 
	C241.840973,373.164368 243.969162,378.018280 243.517899,383.730774 
	C243.132233,388.612854 241.266525,392.669708 236.088684,393.712524 
	C232.065536,394.522766 227.874908,394.501526 223.465317,394.484497 
z"/>
<path fill="#050505" opacity="1.000000" stroke="none" 
	d="
M523.099487,388.879761 
	C525.816711,396.031952 528.429138,402.813080 531.147400,409.868896 
	C523.895569,409.868896 517.122314,409.868896 509.899689,409.868896 
	C513.354248,400.806152 516.706909,392.010895 520.420227,382.269409 
	C521.493225,384.869873 522.243958,386.689301 523.099487,388.879761 
z"/>
<path fill="#050505" opacity="1.000000" stroke="none" 
	d="
M661.213745,409.904846 
	C654.312744,409.989319 647.835754,409.989319 640.852661,409.989319 
	C644.386169,400.732605 647.790100,391.815521 651.634521,381.744324 
	C655.227478,391.828705 658.432617,400.824524 661.213745,409.904846 
z"/>
</svg>