<svg version="1.1" id="Layer_1" xmlns="http://www.w3.org/2000/svg" xmlns:xlink="http://www.w3.org/1999/xlink" x="0px" y="0px"
	 width="100%" viewBox="0 0 800 800" enable-background="new 0 0 800 800" xml:space="preserve">
<path fill="#7ED957" opacity="1.000000" stroke="none" 
	d="
M371.000000,801.000000 
	C247.333328,801.000000 124.166664,801.000000 1.000000,801.000000 
	C1.000000,534.333313 1.000000,267.666656 1.000000,1.000000 
	C267.666656,1.000000 534.333313,1.000000 801.000000,1.000000 
	C801.000000,267.666656 801.000000,534.333313 801.000000,801.000000 
	C657.833313,801.000000 514.666687,801.000000 371.000000,801.000000 
M166.500336,463.477783 
	C159.340027,463.477753 152.179733,463.477722 145.019424,463.477753 
	C124.537613,463.477814 104.055809,463.472473 83.573997,463.479950 
	C71.439491,463.484406 69.951126,464.950745 69.949158,476.827545 
	C69.947639,485.986084 69.932381,495.144653 69.954185,504.303162 
	C69.975075,513.076477 72.410339,515.511047 81.269608,515.514343 
	C122.233223,515.529419 163.196838,515.531189 204.160461,515.513062 
	C212.687622,515.509277 215.292297,513.064148 215.413391,504.610016 
	C215.554108,494.787415 215.516586,484.960693 215.432877,475.136841 
	C215.352097,465.659088 213.144272,463.532440 203.468353,463.491913 
	C191.479202,463.441650 179.489700,463.478577 166.500336,463.477783 
M84.555740,286.827637 
	C83.556595,286.827667 82.557442,286.824402 81.558311,286.828247 
	C72.034073,286.864899 69.970627,288.960480 69.958694,298.661621 
	C69.946815,308.319824 69.934982,317.978119 69.962425,327.636230 
	C69.985863,335.883575 72.731384,338.797424 81.030655,338.809387 
	C122.161232,338.868744 163.292007,338.872375 204.422546,338.802673 
	C212.391937,338.789154 215.263885,335.896423 215.393478,327.911499 
	C215.552872,318.089325 215.509933,308.261993 215.417908,298.438171 
	C215.329071,288.954346 213.077408,286.832703 203.437225,286.830841 
	C164.138290,286.823303 124.839355,286.827667 84.555740,286.827637 
M468.135193,429.499390 
	C468.135193,404.075287 468.135193,378.651184 468.135193,353.209961 
	C460.619080,353.209961 453.745239,353.209961 446.081787,353.209961 
	C446.081787,372.330231 446.081787,391.076965 446.081787,411.237030 
	C444.145691,408.354645 443.099731,406.857727 442.114746,405.321716 
	C431.692566,389.069336 421.303894,372.795380 410.823639,356.580536 
	C409.901398,355.153687 408.449982,353.112305 407.154785,353.043549 
	C400.430237,352.686646 393.676575,352.877441 386.999420,352.877441 
	C386.999420,384.956390 386.999420,416.222168 386.999420,447.733398 
	C394.137115,447.733398 401.026093,447.733398 408.643860,447.733398 
	C408.643860,428.672485 408.643860,409.871796 408.643860,391.071106 
	C410.542084,392.234894 411.498657,393.526978 412.365234,394.876801 
	C422.975983,411.404175 433.547394,427.956970 444.221497,444.443268 
	C445.127472,445.842529 446.647217,447.753204 447.966309,447.822723 
	C454.554810,448.169922 461.171539,447.981537 468.135193,447.981537 
	C468.135193,441.767303 468.135193,436.133057 468.135193,429.499390 
M256.291840,403.825195 
	C266.702942,394.923157 268.429596,383.500641 264.917358,371.142914 
	C261.711517,359.863251 252.779572,354.249329 241.868729,353.442444 
	C228.648026,352.464722 215.299866,353.210510 201.796707,353.210510 
	C201.796707,384.758514 201.796707,416.256409 201.796707,447.612946 
	C209.129440,447.612946 216.030594,447.612946 223.440155,447.612946 
	C223.440155,435.408478 223.440155,423.593231 223.440155,410.659088 
	C232.716858,422.687653 241.211563,433.773132 249.819229,444.770203 
	C250.852570,446.090424 252.468002,447.801392 253.865860,447.850677 
	C262.108612,448.141449 270.366852,447.993866 279.786255,447.993866 
	C268.519287,434.478973 257.966827,421.821106 247.368576,409.108337 
	C250.586807,407.237091 253.151443,405.745880 256.291840,403.825195 
M559.056885,423.393951 
	C551.529480,404.734314 544.018555,386.068054 536.463379,367.419678 
	C534.533997,362.657440 533.695801,356.027954 530.125183,353.743134 
	C526.297607,351.293976 519.826965,353.126404 514.532288,352.762695 
	C511.318634,352.541931 509.967072,353.803467 508.799377,356.732666 
	C497.284729,385.618134 485.591187,414.432251 473.963623,443.272766 
	C473.391357,444.692200 472.960205,446.168549 472.331482,448.003174 
	C479.337585,448.003174 485.663361,447.866272 491.978333,448.068115 
	C494.639282,448.153168 495.794525,447.142059 496.610718,444.742493 
	C498.411072,439.449585 500.485840,434.250000 502.451874,429.003815 
	C513.413391,429.003815 523.906067,429.195679 534.384827,428.897644 
	C537.952820,428.796173 539.312683,430.124695 540.258545,433.253174 
	C541.507019,437.382690 543.148804,441.404022 544.825745,445.385864 
	C545.259644,446.416168 546.434998,447.843689 547.304932,447.868744 
	C554.338196,448.071045 561.379822,447.982147 568.991577,447.982147 
	C565.554688,439.495514 562.440735,431.806244 559.056885,423.393951 
M655.336243,352.825287 
	C652.339294,352.825317 649.311768,353.093964 646.352966,352.758057 
	C642.568420,352.328400 640.896851,353.814484 639.518433,357.348755 
	C632.452942,375.464722 625.062317,393.453888 617.785034,411.487305 
	C612.946045,423.478302 608.106689,435.469086 603.050781,447.997101 
	C610.503845,447.997101 617.306885,448.130890 624.094299,447.865845 
	C625.229736,447.821472 626.781311,446.255432 627.309204,445.033417 
	C629.152161,440.767090 630.456421,436.265381 632.352478,432.026245 
	C632.930969,430.732880 634.739319,429.162842 636.013367,429.136963 
	C647.150391,428.910767 658.294006,429.006195 669.589294,429.006195 
	C671.653748,434.489990 673.487976,439.819824 675.722107,444.976410 
	C676.282532,446.270142 678.091675,447.809296 679.386963,447.866119 
	C686.022156,448.157349 692.677124,448.000885 699.739197,448.000885 
	C699.014526,445.918854 698.495605,444.197571 697.825623,442.537201 
	C686.381348,414.176117 674.822693,385.860413 663.572449,357.422668 
	C662.051758,353.578735 660.078491,352.194977 655.336243,352.825287 
M121.878143,377.499969 
	C121.878143,402.586395 121.878143,427.672791 121.878143,452.768433 
	C136.044189,452.768433 149.584839,452.768433 163.028442,452.768433 
	C163.028442,418.131561 163.028442,383.898132 163.028442,349.426453 
	C149.268234,349.426453 135.864029,349.426453 121.878143,349.426453 
	C121.878143,358.615723 121.878143,367.557831 121.878143,377.499969 
M284.110626,369.502502 
	C284.110626,395.567383 284.110626,421.632294 284.110626,447.611938 
	C302.686066,447.611938 320.553772,447.611938 338.452637,447.611938 
	C338.452637,441.293671 338.452637,435.373688 338.452637,428.820618 
	C327.473907,428.820618 316.774261,428.820618 306.185913,428.820618 
	C306.185913,422.235229 306.185913,416.292023 306.185913,409.826233 
	C316.491760,409.826233 326.556641,409.826233 336.872070,409.826233 
	C336.872070,403.264709 336.872070,397.234711 336.872070,390.689453 
	C326.463837,390.689453 316.393188,390.689453 306.331726,390.689453 
	C306.331726,384.117828 306.331726,378.070862 306.331726,371.508575 
	C317.290222,371.508575 327.853119,371.508575 338.408997,371.508575 
	C338.408997,365.058502 338.408997,359.142792 338.408997,353.211792 
	C320.198395,353.211792 302.328735,353.211792 284.110626,353.211792 
	C284.110626,358.565430 284.110626,363.534912 284.110626,369.502502 
M99.536095,526.000000 
	C96.745186,526.000000 93.954285,526.000000 90.929131,526.000000 
	C90.929131,534.286682 90.657837,542.081177 91.031502,549.844543 
	C91.253479,554.456360 94.350540,556.977539 99.071915,556.982605 
	C124.569115,557.009949 150.066360,556.988037 175.563599,557.003662 
	C180.041946,557.006409 183.406860,554.840332 183.684250,550.533508 
	C184.202560,542.486145 183.833237,534.381653 183.833237,526.000000 
	C155.809357,526.000000 128.169525,526.000000 99.536095,526.000000 
M181.103775,247.079681 
	C179.540253,246.625885 177.977982,245.781555 176.413025,245.776535 
	C150.415222,245.693039 124.417084,245.724411 98.419037,245.704330 
	C93.665131,245.700668 91.173119,248.435074 90.987373,252.740265 
	C90.659286,260.344910 90.895477,267.973877 90.895477,275.829681 
	C122.040405,275.829681 152.914322,275.829681 184.097260,275.829681 
	C184.097260,268.355804 184.277893,261.210999 183.988617,254.085281 
	C183.900360,251.911514 182.519302,249.790207 181.103775,247.079681 
M372.931335,411.500000 
	C372.931335,392.064758 372.931335,372.629517 372.931335,353.158478 
	C365.360809,353.158478 358.455780,353.158478 351.455322,353.158478 
	C351.455322,384.886780 351.455322,416.276306 351.455322,447.698273 
	C358.711609,447.698273 365.623016,447.698273 372.931335,447.698273 
	C372.931335,435.762726 372.931335,424.131378 372.931335,411.500000 
M725.316284,368.502563 
	C725.316284,363.408325 725.316284,358.314087 725.316284,353.247864 
	C717.722778,353.247864 710.843445,353.247864 704.001831,353.247864 
	C704.001831,384.937653 704.001831,416.209351 704.001831,447.696747 
	C711.142212,447.696747 718.035583,447.696747 725.316345,447.696747 
	C725.316345,421.430786 725.316345,395.466095 725.316284,368.502563 
M598.886780,434.030396 
	C597.488525,431.631897 596.473511,428.868347 594.610657,426.912445 
	C590.956970,423.076385 586.196350,422.216858 581.303040,424.175812 
	C576.533447,426.085297 573.397827,429.643829 572.895935,434.973206 
	C572.126892,443.140503 577.588806,449.500092 585.459839,449.755005 
	C593.650879,450.020264 598.970215,444.151367 598.886780,434.030396 
M733.662170,330.258636 
	C734.683960,329.554657 735.705750,328.850708 736.939209,328.000916 
	C733.395386,323.524109 730.121643,319.388428 726.658936,315.014069 
	C718.742859,321.857605 711.128296,328.440582 703.280579,335.225037 
	C705.510986,338.342163 707.507629,341.132538 709.697083,344.192413 
	C717.622559,339.601807 725.347412,335.127411 733.662170,330.258636 
z"/>
<path fill="#020401" opacity="1.000000" stroke="none" 
	d="
M167.000336,463.477814 
	C179.489700,463.478577 191.479202,463.441650 203.468353,463.491913 
	C213.144272,463.532440 215.352097,465.659088 215.432877,475.136841 
	C215.516586,484.960693 215.554108,494.787415 215.413391,504.610016 
	C215.292297,513.064148 212.687622,515.509277 204.160461,515.513062 
	C163.196838,515.531189 122.233223,515.529419 81.269608,515.514343 
	C72.410339,515.511047 69.975075,513.076477 69.954185,504.303162 
	C69.932381,495.144653 69.947639,485.986084 69.949158,476.827545 
	C69.951126,464.950745 71.439491,463.484406 83.573997,463.479950 
	C104.055809,463.472473 124.537613,463.477814 145.019424,463.477753 
	C152.179733,463.477722 159.340027,463.477753 167.000336,463.477814 
z"/>
<path fill="#010100" opacity="1.000000" stroke="none" 
	d="
M85.048080,286.827637 
	C124.839355,286.827667 164.138290,286.823303 203.437225,286.830841 
	C213.077408,286.832703 215.329071,288.954346 215.417908,298.438171 
	C215.509933,308.261993 215.552872,318.089325 215.393478,327.911499 
	C215.263885,335.896423 212.391937,338.789154 204.422546,338.802673 
	C163.292007,338.872375 122.161232,338.868744 81.030655,338.809387 
	C72.731384,338.797424 69.985863,335.883575 69.962425,327.636230 
	C69.934982,317.978119 69.946815,308.319824 69.958694,298.661621 
	C69.970627,288.960480 72.034073,286.864899 81.558311,286.828247 
	C82.557442,286.824402 83.556595,286.827667 85.048080,286.827637 
z"/>
<path fill="#010201" opacity="1.000000" stroke="none" 
	d="
M468.135193,429.999084 
	C468.135193,436.133057 468.135193,441.767303 468.135193,447.981537 
	C461.171539,447.981537 454.554810,448.169922 447.966309,447.822723 
	C446.647217,447.753204 445.127472,445.842529 444.221497,444.443268 
	C433.547394,427.956970 422.975983,411.404175 412.365234,394.876801 
	C411.498657,393.526978 410.542084,392.234894 408.643860,391.071106 
	C408.643860,409.871796 408.643860,428.672485 408.643860,447.733398 
	C401.026093,447.733398 394.137115,447.733398 386.999420,447.733398 
	C386.999420,416.222168 386.999420,384.956390 386.999420,352.877441 
	C393.676575,352.877441 400.430237,352.686646 407.154785,353.043549 
	C408.449982,353.112305 409.901398,355.153687 410.823639,356.580536 
	C421.303894,372.795380 431.692566,389.069336 442.114746,405.321716 
	C443.099731,406.857727 444.145691,408.354645 446.081787,411.237030 
	C446.081787,391.076965 446.081787,372.330231 446.081787,353.209961 
	C453.745239,353.209961 460.619080,353.209961 468.135193,353.209961 
	C468.135193,378.651184 468.135193,404.075287 468.135193,429.999084 
z"/>
<path fill="#020301" opacity="1.000000" stroke="none" 
	d="
M256.003967,404.039917 
	C253.151443,405.745880 250.586807,407.237091 247.368576,409.108337 
	C257.966827,421.821106 268.519287,434.478973 279.786255,447.993866 
	C270.366852,447.993866 262.108612,448.141449 253.865860,447.850677 
	C252.468002,447.801392 250.852570,446.090424 249.819229,444.770203 
	C241.211563,433.773132 232.716858,422.687653 223.440155,410.659088 
	C223.440155,423.593231 223.440155,435.408478 223.440155,447.612946 
	C216.030594,447.612946 209.129440,447.612946 201.796707,447.612946 
	C201.796707,416.256409 201.796707,384.758514 201.796707,353.210510 
	C215.299866,353.210510 228.648026,352.464722 241.868729,353.442444 
	C252.779572,354.249329 261.711517,359.863251 264.917358,371.142914 
	C268.429596,383.500641 266.702942,394.923157 256.003967,404.039917 
M223.078735,382.501068 
	C223.078735,386.591125 223.078735,390.681152 223.078735,395.025146 
	C230.353134,394.764984 237.381409,396.029175 241.885895,389.468506 
	C244.604111,385.509460 244.292603,378.348846 241.336914,374.820374 
	C236.501816,369.048370 229.835800,370.293579 223.078735,370.047607 
	C223.078735,374.253815 223.078735,377.883850 223.078735,382.501068 
z"/>
<path fill="#010201" opacity="1.000000" stroke="none" 
	d="
M559.191772,423.755463 
	C562.440735,431.806244 565.554688,439.495514 568.991577,447.982147 
	C561.379822,447.982147 554.338196,448.071045 547.304932,447.868744 
	C546.434998,447.843689 545.259644,446.416168 544.825745,445.385864 
	C543.148804,441.404022 541.507019,437.382690 540.258545,433.253174 
	C539.312683,430.124695 537.952820,428.796173 534.384827,428.897644 
	C523.906067,429.195679 513.413391,429.003815 502.451874,429.003815 
	C500.485840,434.250000 498.411072,439.449585 496.610718,444.742493 
	C495.794525,447.142059 494.639282,448.153168 491.978333,448.068115 
	C485.663361,447.866272 479.337585,448.003174 472.331482,448.003174 
	C472.960205,446.168549 473.391357,444.692200 473.963623,443.272766 
	C485.591187,414.432251 497.284729,385.618134 508.799377,356.732666 
	C509.967072,353.803467 511.318634,352.541931 514.532288,352.762695 
	C519.826965,353.126404 526.297607,351.293976 530.125183,353.743134 
	C533.695801,356.027954 534.533997,362.657440 536.463379,367.419678 
	C544.018555,386.068054 551.529480,404.734314 559.191772,423.755463 
M524.366394,392.072296 
	C523.181213,389.044128 521.996033,386.015991 520.453064,382.073486 
	C516.725342,391.836792 513.363708,400.641388 509.866241,409.801697 
	C517.136292,409.801697 523.874329,409.801697 531.115051,409.801697 
	C528.899170,403.908539 526.804932,398.338776 524.366394,392.072296 
z"/>
<path fill="#010201" opacity="1.000000" stroke="none" 
	d="
M655.806519,352.825317 
	C660.078491,352.194977 662.051758,353.578735 663.572449,357.422668 
	C674.822693,385.860413 686.381348,414.176117 697.825623,442.537201 
	C698.495605,444.197571 699.014526,445.918854 699.739197,448.000885 
	C692.677124,448.000885 686.022156,448.157349 679.386963,447.866119 
	C678.091675,447.809296 676.282532,446.270142 675.722107,444.976410 
	C673.487976,439.819824 671.653748,434.489990 669.589294,429.006195 
	C658.294006,429.006195 647.150391,428.910767 636.013367,429.136963 
	C634.739319,429.162842 632.930969,430.732880 632.352478,432.026245 
	C630.456421,436.265381 629.152161,440.767090 627.309204,445.033417 
	C626.781311,446.255432 625.229736,447.821472 624.094299,447.865845 
	C617.306885,448.130890 610.503845,447.997101 603.050781,447.997101 
	C608.106689,435.469086 612.946045,423.478302 617.785034,411.487305 
	C625.062317,393.453888 632.452942,375.464722 639.518433,357.348755 
	C640.896851,353.814484 642.568420,352.328400 646.352966,352.758057 
	C649.311768,353.093964 652.339294,352.825317 655.806519,352.825317 
M644.869385,399.317719 
	C643.578674,402.702606 642.287964,406.087494 640.872620,409.799377 
	C648.142517,409.799377 654.880676,409.799377 662.181702,409.799377 
	C658.658997,400.641907 655.279785,391.857391 651.507751,382.051666 
	C649.055969,388.360870 647.071533,393.467346 644.869385,399.317719 
z"/>
<path fill="#000100" opacity="1.000000" stroke="none" 
	d="
M121.878143,376.999939 
	C121.878143,367.557831 121.878143,358.615723 121.878143,349.426453 
	C135.864029,349.426453 149.268234,349.426453 163.028442,349.426453 
	C163.028442,383.898132 163.028442,418.131561 163.028442,452.768433 
	C149.584839,452.768433 136.044189,452.768433 121.878143,452.768433 
	C121.878143,427.672791 121.878143,402.586395 121.878143,376.999939 
z"/>
<path fill="#020301" opacity="1.000000" stroke="none" 
	d="
M284.110626,369.003479 
	C284.110626,363.534912 284.110626,358.565430 284.110626,353.211792 
	C302.328735,353.211792 320.198395,353.211792 338.408997,353.211792 
	C338.408997,359.142792 338.408997,365.058502 338.408997,371.508575 
	C327.853119,371.508575 317.290222,371.508575 306.331726,371.508575 
	C306.331726,378.070862 306.331726,384.117828 306.331726,390.689453 
	C316.393188,390.689453 326.463837,390.689453 336.872070,390.689453 
	C336.872070,397.234711 336.872070,403.264709 336.872070,409.826233 
	C326.556641,409.826233 316.491760,409.826233 306.185913,409.826233 
	C306.185913,416.292023 306.185913,422.235229 306.185913,428.820618 
	C316.774261,428.820618 327.473907,428.820618 338.452637,428.820618 
	C338.452637,435.373688 338.452637,441.293671 338.452637,447.611938 
	C320.553772,447.611938 302.686066,447.611938 284.110626,447.611938 
	C284.110626,421.632294 284.110626,395.567383 284.110626,369.003479 
z"/>
<path fill="#000000" opacity="1.000000" stroke="none" 
	d="
M100.032898,526.000000 
	C128.169525,526.000000 155.809357,526.000000 183.833237,526.000000 
	C183.833237,534.381653 184.202560,542.486145 183.684250,550.533508 
	C183.406860,554.840332 180.041946,557.006409 175.563599,557.003662 
	C150.066360,556.988037 124.569115,557.009949 99.071915,556.982605 
	C94.350540,556.977539 91.253479,554.456360 91.031502,549.844543 
	C90.657837,542.081177 90.929131,534.286682 90.929131,526.000000 
	C93.954285,526.000000 96.745186,526.000000 100.032898,526.000000 
z"/>
<path fill="#000000" opacity="1.000000" stroke="none" 
	d="
M181.417053,247.362274 
	C182.519302,249.790207 183.900360,251.911514 183.988617,254.085281 
	C184.277893,261.210999 184.097260,268.355804 184.097260,275.829681 
	C152.914322,275.829681 122.040405,275.829681 90.895477,275.829681 
	C90.895477,267.973877 90.659286,260.344910 90.987373,252.740265 
	C91.173119,248.435074 93.665131,245.700668 98.419037,245.704330 
	C124.417084,245.724411 150.415222,245.693039 176.413025,245.776535 
	C177.977982,245.781555 179.540253,246.625885 181.417053,247.362274 
z"/>
<path fill="#020301" opacity="1.000000" stroke="none" 
	d="
M372.931335,412.000000 
	C372.931335,424.131378 372.931335,435.762726 372.931335,447.698273 
	C365.623016,447.698273 358.711609,447.698273 351.455322,447.698273 
	C351.455322,416.276306 351.455322,384.886780 351.455322,353.158478 
	C358.455780,353.158478 365.360809,353.158478 372.931335,353.158478 
	C372.931335,372.629517 372.931335,392.064758 372.931335,412.000000 
z"/>
<path fill="#000000" opacity="1.000000" stroke="none" 
	d="
M725.316284,369.001984 
	C725.316345,395.466095 725.316345,421.430786 725.316345,447.696747 
	C718.035583,447.696747 711.142212,447.696747 704.001831,447.696747 
	C704.001831,416.209351 704.001831,384.937653 704.001831,353.247864 
	C710.843445,353.247864 717.722778,353.247864 725.316284,353.247864 
	C725.316284,358.314087 725.316284,363.408325 725.316284,369.001984 
z"/>
<path fill="#020401" opacity="1.000000" stroke="none" 
	d="
M598.927002,434.441284 
	C598.970215,444.151367 593.650879,450.020264 585.459839,449.755005 
	C577.588806,449.500092 572.126892,443.140503 572.895935,434.973206 
	C573.397827,429.643829 576.533447,426.085297 581.303040,424.175812 
	C586.196350,422.216858 590.956970,423.076385 594.610657,426.912445 
	C596.473511,428.868347 597.488525,431.631897 598.927002,434.441284 
z"/>
<path fill="#020401" opacity="1.000000" stroke="none" 
	d="
M733.367188,330.455841 
	C725.347412,335.127411 717.622559,339.601807 709.697083,344.192413 
	C707.507629,341.132538 705.510986,338.342163 703.280579,335.225037 
	C711.128296,328.440582 718.742859,321.857605 726.658936,315.014069 
	C730.121643,319.388428 733.395386,323.524109 736.939209,328.000916 
	C735.705750,328.850708 734.683960,329.554657 733.367188,330.455841 
z"/>
<path fill="#7BD455" opacity="1.000000" stroke="none" 
	d="
M223.078735,382.007446 
	C223.078735,377.883850 223.078735,374.253815 223.078735,370.047607 
	C229.835800,370.293579 236.501816,369.048370 241.336914,374.820374 
	C244.292603,378.348846 244.604111,385.509460 241.885895,389.468506 
	C237.381409,396.029175 230.353134,394.764984 223.078735,395.025146 
	C223.078735,390.681152 223.078735,386.591125 223.078735,382.007446 
z"/>
<path fill="#7BD455" opacity="1.000000" stroke="none" 
	d="
M524.538513,392.420654 
	C526.804932,398.338776 528.899170,403.908539 531.115051,409.801697 
	C523.874329,409.801697 517.136292,409.801697 509.866241,409.801697 
	C513.363708,400.641388 516.725342,391.836792 520.453064,382.073486 
	C521.996033,386.015991 523.181213,389.044128 524.538513,392.420654 
z"/>
<path fill="#7BD455" opacity="1.000000" stroke="none" 
	d="
M644.978271,398.945740 
	C647.071533,393.467346 649.055969,388.360870 651.507751,382.051666 
	C655.279785,391.857391 658.658997,400.641907 662.181702,409.799377 
	C654.880676,409.799377 648.142517,409.799377 640.872620,409.799377 
	C642.287964,406.087494 643.578674,402.702606 644.978271,398.945740 
z"/>
</svg>