<svg version="1.1" id="Layer_1" xmlns="http://www.w3.org/2000/svg" xmlns:xlink="http://www.w3.org/1999/xlink" x="0px" y="0px"
	 width="100%" viewBox="0 0 800 800" enable-background="new 0 0 800 800" xml:space="preserve">
<path fill="#000000" opacity="1.000000" stroke="none" 
	d="
M374.000000,801.000000 
	C249.333328,801.000000 125.166664,801.000000 1.000000,801.000000 
	C1.000000,534.333313 1.000000,267.666656 1.000000,1.000000 
	C267.666656,1.000000 534.333313,1.000000 801.000000,1.000000 
	C801.000000,267.666656 801.000000,534.333313 801.000000,801.000000 
	C658.833313,801.000000 516.666687,801.000000 374.000000,801.000000 
M169.500092,463.162445 
	C140.183838,463.162720 110.867554,463.135010 81.551376,463.180206 
	C72.713257,463.193817 70.140808,465.753326 70.086800,474.417603 
	C70.024521,484.411377 70.005333,494.406494 70.097275,504.399811 
	C70.171692,512.487549 72.924873,515.163696 80.961624,515.166260 
	C122.270889,515.179626 163.580154,515.180664 204.889420,515.164978 
	C212.684967,515.161987 215.435471,512.629700 215.584305,504.743622 
	C215.776001,494.586456 215.767838,484.420898 215.599411,474.263031 
	C215.454041,465.495758 212.949768,463.213562 203.980545,463.174713 
	C192.820587,463.126312 181.660263,463.162689 169.500092,463.162445 
M99.500061,338.837494 
	C119.653687,338.837494 139.807312,338.837891 159.960938,338.837372 
	C174.618103,338.836975 189.276031,338.923889 203.932159,338.800323 
	C212.376740,338.729156 215.362183,336.185730 215.547607,328.521484 
	C215.805344,317.868469 215.802307,307.199493 215.533875,296.546814 
	C215.351990,289.328552 212.487625,286.848877 205.174942,286.843567 
	C163.701843,286.813477 122.228683,286.814972 80.755562,286.841095 
	C72.973465,286.846008 70.199226,289.522583 70.108459,297.301086 
	C69.987976,307.626343 69.988403,317.955017 70.105980,328.280304 
	C70.187355,335.426575 72.851791,338.319946 80.017464,338.702667 
	C86.163239,339.030853 92.338142,338.813568 99.500061,338.837494 
M408.374878,440.351318 
	C408.374878,423.930603 408.374878,407.509888 408.374878,391.089203 
	C410.801392,392.553253 411.847473,394.050537 412.832458,395.586945 
	C423.253448,411.841644 433.629883,428.125153 444.136719,444.324097 
	C445.105682,445.818054 446.830505,447.742462 448.302277,447.830505 
	C454.733856,448.215210 461.201538,447.996002 467.894501,447.996002 
	C467.894501,416.122772 467.894501,384.732483 467.894501,353.089294 
	C460.739899,353.089294 453.845551,353.089294 446.186188,353.089294 
	C446.186188,372.155029 446.186188,390.946747 446.186188,409.738464 
	C444.205627,408.371582 443.164673,406.909485 442.196533,405.400635 
	C431.679688,389.010254 421.193817,372.599945 410.628387,356.240967 
	C409.789093,354.941467 408.462341,353.071655 407.290955,353.017883 
	C400.553894,352.708679 393.795349,352.867310 387.054993,352.867310 
	C387.054993,384.930298 387.054993,416.331665 387.054993,447.843506 
	C394.201324,447.843506 401.006165,447.843506 408.374786,447.843506 
	C408.374786,445.569061 408.374786,443.437378 408.374878,440.351318 
M276.577820,444.054108 
	C266.902954,432.467468 257.228088,420.880798 247.254944,408.936890 
	C248.863007,408.147980 249.862656,407.657959 250.861938,407.167206 
	C262.643402,401.381836 267.843811,390.736969 266.137970,375.898621 
	C264.830811,364.528259 256.949738,355.553040 244.260010,354.002777 
	C232.102661,352.517517 219.691238,353.097534 207.390442,352.815704 
	C205.479431,352.771942 203.562820,352.972778 201.720581,353.057190 
	C201.720581,385.013855 201.720581,416.383026 201.720581,447.642761 
	C209.051773,447.642761 215.963593,447.642761 223.408371,447.642761 
	C223.408371,435.466888 223.408371,423.647156 223.408371,410.670776 
	C232.714294,422.735046 241.209763,433.821777 249.821915,444.817139 
	C250.851318,446.131409 252.485733,447.805847 253.890518,447.854797 
	C262.135651,448.141998 270.395874,447.995941 279.504272,447.995941 
	C278.330231,446.386536 277.690308,445.509338 276.577820,444.054108 
M567.566101,447.955811 
	C567.417419,446.419556 567.618042,444.743744 567.068237,443.367767 
	C556.958679,418.069580 546.784607,392.796967 536.556763,367.546295 
	C534.579041,362.663605 533.543884,356.017609 529.842957,353.599579 
	C526.076050,351.138519 519.544922,353.058960 514.243835,352.737091 
	C511.209534,352.552856 509.940216,353.806152 508.872559,356.492218 
	C500.650391,377.177917 492.271698,397.801392 483.942993,418.444794 
	C480.039917,428.118927 476.140076,437.794373 472.140259,447.713531 
	C480.095276,447.713531 487.536865,447.713531 494.978455,447.713531 
	C497.006226,442.664398 499.235901,437.683838 500.982971,432.539368 
	C501.966553,429.643219 503.520477,428.886414 506.411957,428.939850 
	C515.730835,429.111969 525.057922,429.136292 534.375427,428.929535 
	C537.481995,428.860565 539.217651,429.578461 540.101074,432.778900 
	C541.158203,436.608704 542.947083,440.231750 544.108887,444.038971 
	C545.012329,446.999756 546.449951,448.273499 549.750916,448.089691 
	C555.393433,447.775452 561.065857,447.998688 567.566101,447.955811 
M605.300415,447.996277 
	C611.126892,447.998657 616.961792,447.815308 622.776184,448.081757 
	C625.680725,448.214905 626.921936,447.085266 627.751526,444.520081 
	C629.130920,440.254822 630.634338,436.013672 632.409668,431.902374 
	C632.930786,430.695465 634.533203,429.156219 635.664856,429.135651 
	C646.963745,428.930389 658.267822,429.011108 669.572998,429.011108 
	C671.676331,434.611969 673.538879,439.943512 675.732666,445.134979 
	C676.240051,446.335602 677.851074,447.828827 679.004150,447.872620 
	C685.793274,448.130554 692.597290,447.999542 699.815125,447.999542 
	C699.160095,446.196777 698.701172,444.806854 698.155884,443.451630 
	C687.986511,418.176361 677.829285,392.896179 667.609924,367.641113 
	C665.629944,362.747894 664.643250,355.963318 660.947937,353.657104 
	C656.957581,351.166748 650.321289,353.021423 644.850586,352.751190 
	C642.285828,352.624481 641.032532,353.556122 640.084290,355.923950 
	C628.287720,385.380157 616.383545,414.793335 604.582825,444.247894 
	C604.151306,445.325073 604.495178,446.712921 605.300415,447.996277 
M163.720795,354.697754 
	C163.720795,352.920776 163.720795,351.143799 163.720795,349.328888 
	C149.496597,349.328888 135.929504,349.328888 122.431252,349.328888 
	C122.431252,384.046265 122.431252,418.428497 122.431252,452.754150 
	C136.272552,452.754150 149.718811,452.754150 163.720840,452.754150 
	C163.720840,420.222565 163.720840,387.938385 163.720795,354.697754 
M318.517303,390.798584 
	C314.419495,390.798584 310.321686,390.798584 306.248596,390.798584 
	C306.248596,384.123016 306.248596,378.196503 306.248596,371.756165 
	C317.110992,371.756165 327.684540,371.756165 338.392944,371.756165 
	C338.392944,365.197357 338.392944,359.163300 338.392944,353.235748 
	C320.109528,353.235748 302.229767,353.235748 284.499451,353.235748 
	C284.499451,385.052002 284.499451,416.429504 284.499451,447.754333 
	C302.688019,447.754333 320.463348,447.754333 338.455353,447.754333 
	C338.455353,441.451050 338.455353,435.401520 338.455353,428.900452 
	C327.537567,428.900452 316.948212,428.900452 306.256287,428.900452 
	C306.256287,422.379791 306.256287,416.316559 306.256287,409.741699 
	C316.630493,409.741699 326.709259,409.741699 336.850098,409.741699 
	C336.850098,403.175079 336.850098,397.131683 336.850098,390.798584 
	C330.805969,390.798584 325.159027,390.798584 318.517303,390.798584 
M122.500076,525.827209 
	C112.078148,525.827209 101.656212,525.827209 91.011574,525.827209 
	C91.011574,533.866638 90.809563,541.184509 91.078857,548.484924 
	C91.275604,553.818909 94.370316,556.762573 99.774696,556.784424 
	C125.105911,556.886841 150.438034,556.889587 175.769165,556.775452 
	C180.816727,556.752686 183.825974,554.089478 184.044617,549.230469 
	C184.387619,541.607422 184.135635,533.957581 184.135635,525.827209 
	C163.759949,525.827209 143.630020,525.827209 122.500076,525.827209 
M101.521942,276.168213 
	C129.053772,276.168213 156.585617,276.168213 184.180313,276.168213 
	C184.180313,267.989960 184.419540,260.665405 184.101196,253.365173 
	C183.865677,247.964310 181.524399,245.755890 176.237045,245.736450 
	C150.442596,245.641663 124.647545,245.731903 98.852829,245.686478 
	C94.368591,245.678589 91.583656,248.137497 91.341515,252.104797 
	C90.860054,259.993103 91.199051,267.931458 91.199051,276.168213 
	C94.586784,276.168213 97.559448,276.168213 101.521942,276.168213 
M372.949310,415.500000 
	C372.949310,394.752563 372.949310,374.005127 372.949310,353.059235 
	C365.458923,353.059235 358.553955,353.059235 351.471710,353.059235 
	C351.471710,384.804047 351.471710,416.286713 351.471710,447.682861 
	C358.773193,447.682861 365.685547,447.682861 372.949310,447.682861 
	C372.949310,437.076019 372.949310,426.787994 372.949310,415.500000 
M725.365601,387.500244 
	C725.365601,376.085266 725.365601,364.670319 725.365601,353.170563 
	C717.817688,353.170563 710.942017,353.170563 704.039124,353.170563 
	C704.039124,384.887695 704.039124,416.239655 704.039124,447.673492 
	C711.254822,447.673492 718.149475,447.673492 725.019165,447.673492 
	C725.157837,446.869080 725.313904,446.384460 725.314575,445.899628 
	C725.340393,426.766510 725.352112,407.633392 725.365601,387.500244 
M585.579590,449.809235 
	C593.366150,448.946289 597.964905,445.123932 598.927368,438.715088 
	C599.841187,432.629669 596.372925,426.372711 590.732971,424.188293 
	C585.782715,422.270966 581.215088,423.123932 577.234192,426.617554 
	C573.059875,430.280975 571.767822,435.030823 573.256287,440.216003 
	C574.867493,445.828552 578.750061,449.205841 585.579590,449.809235 
M718.498840,321.995911 
	C713.486328,326.342163 708.473816,330.688446 703.242981,335.224030 
	C705.471558,338.345612 707.472595,341.148438 709.687500,344.250793 
	C714.311890,341.568970 718.751404,339.004578 723.180847,336.422791 
	C727.728027,333.772400 732.265259,331.104980 737.174255,328.229797 
	C733.479553,323.576172 730.124084,319.349792 726.677917,315.009216 
	C723.843628,317.424622 721.438293,319.474487 718.498840,321.995911 
z"/>
<path fill="#7DD756" opacity="1.000000" stroke="none" 
	d="
M170.000092,463.162445 
	C181.660263,463.162689 192.820587,463.126312 203.980545,463.174713 
	C212.949768,463.213562 215.454041,465.495758 215.599411,474.263031 
	C215.767838,484.420898 215.776001,494.586456 215.584305,504.743622 
	C215.435471,512.629700 212.684967,515.161987 204.889420,515.164978 
	C163.580154,515.180664 122.270889,515.179626 80.961624,515.166260 
	C72.924873,515.163696 70.171692,512.487549 70.097275,504.399811 
	C70.005333,494.406494 70.024521,484.411377 70.086800,474.417603 
	C70.140808,465.753326 72.713257,463.193817 81.551376,463.180206 
	C110.867554,463.135010 140.183838,463.162720 170.000092,463.162445 
z"/>
<path fill="#7DD756" opacity="1.000000" stroke="none" 
	d="
M99.000114,338.837494 
	C92.338142,338.813568 86.163239,339.030853 80.017464,338.702667 
	C72.851791,338.319946 70.187355,335.426575 70.105980,328.280304 
	C69.988403,317.955017 69.987976,307.626343 70.108459,297.301086 
	C70.199226,289.522583 72.973465,286.846008 80.755562,286.841095 
	C122.228683,286.814972 163.701843,286.813477 205.174942,286.843567 
	C212.487625,286.848877 215.351990,289.328552 215.533875,296.546814 
	C215.802307,307.199493 215.805344,317.868469 215.547607,328.521484 
	C215.362183,336.185730 212.376740,338.729156 203.932159,338.800323 
	C189.276031,338.923889 174.618103,338.836975 159.960938,338.837372 
	C139.807312,338.837891 119.653687,338.837494 99.000114,338.837494 
z"/>
<path fill="#7DD756" opacity="1.000000" stroke="none" 
	d="
M408.374817,440.828522 
	C408.374786,443.437378 408.374786,445.569061 408.374786,447.843506 
	C401.006165,447.843506 394.201324,447.843506 387.054993,447.843506 
	C387.054993,416.331665 387.054993,384.930298 387.054993,352.867310 
	C393.795349,352.867310 400.553894,352.708679 407.290955,353.017883 
	C408.462341,353.071655 409.789093,354.941467 410.628387,356.240967 
	C421.193817,372.599945 431.679688,389.010254 442.196533,405.400635 
	C443.164673,406.909485 444.205627,408.371582 446.186188,409.738464 
	C446.186188,390.946747 446.186188,372.155029 446.186188,353.089294 
	C453.845551,353.089294 460.739899,353.089294 467.894501,353.089294 
	C467.894501,384.732483 467.894501,416.122772 467.894501,447.996002 
	C461.201538,447.996002 454.733856,448.215210 448.302277,447.830505 
	C446.830505,447.742462 445.105682,445.818054 444.136719,444.324097 
	C433.629883,428.125153 423.253448,411.841644 412.832458,395.586945 
	C411.847473,394.050537 410.801392,392.553253 408.374878,391.089203 
	C408.374878,407.509888 408.374878,423.930603 408.374817,440.828522 
z"/>
<path fill="#7CD656" opacity="1.000000" stroke="none" 
	d="
M276.814117,444.343140 
	C277.690308,445.509338 278.330231,446.386536 279.504272,447.995941 
	C270.395874,447.995941 262.135651,448.141998 253.890518,447.854797 
	C252.485733,447.805847 250.851318,446.131409 249.821915,444.817139 
	C241.209763,433.821777 232.714294,422.735046 223.408371,410.670776 
	C223.408371,423.647156 223.408371,435.466888 223.408371,447.642761 
	C215.963593,447.642761 209.051773,447.642761 201.720581,447.642761 
	C201.720581,416.383026 201.720581,385.013855 201.720581,353.057190 
	C203.562820,352.972778 205.479431,352.771942 207.390442,352.815704 
	C219.691238,353.097534 232.102661,352.517517 244.260010,354.002777 
	C256.949738,355.553040 264.830811,364.528259 266.137970,375.898621 
	C267.843811,390.736969 262.643402,401.381836 250.861938,407.167206 
	C249.862656,407.657959 248.863007,408.147980 247.254944,408.936890 
	C257.228088,420.880798 266.902954,432.467468 276.814117,444.343140 
M237.473770,393.284607 
	C243.123199,389.997589 245.191772,383.311005 242.531601,376.935455 
	C240.159256,371.249786 232.219391,368.669220 223.333862,370.736542 
	C223.333862,378.644165 223.333862,386.566589 223.333862,395.463715 
	C228.044525,394.810791 232.394333,394.207886 237.473770,393.284607 
z"/>
<path fill="#7DD756" opacity="1.000000" stroke="none" 
	d="
M567.145874,447.976013 
	C561.065857,447.998688 555.393433,447.775452 549.750916,448.089691 
	C546.449951,448.273499 545.012329,446.999756 544.108887,444.038971 
	C542.947083,440.231750 541.158203,436.608704 540.101074,432.778900 
	C539.217651,429.578461 537.481995,428.860565 534.375427,428.929535 
	C525.057922,429.136292 515.730835,429.111969 506.411957,428.939850 
	C503.520477,428.886414 501.966553,429.643219 500.982971,432.539368 
	C499.235901,437.683838 497.006226,442.664398 494.978455,447.713531 
	C487.536865,447.713531 480.095276,447.713531 472.140259,447.713531 
	C476.140076,437.794373 480.039917,428.118927 483.942993,418.444794 
	C492.271698,397.801392 500.650391,377.177917 508.872559,356.492218 
	C509.940216,353.806152 511.209534,352.552856 514.243835,352.737091 
	C519.544922,353.058960 526.076050,351.138519 529.842957,353.599579 
	C533.543884,356.017609 534.579041,362.663605 536.556763,367.546295 
	C546.784607,392.796967 556.958679,418.069580 567.068237,443.367767 
	C567.618042,444.743744 567.417419,446.419556 567.145874,447.976013 
M530.505432,408.154846 
	C527.300232,399.804291 524.094971,391.453766 520.477661,382.029572 
	C516.675354,392.037781 513.343262,400.808350 509.848724,410.006378 
	C513.982117,410.006378 517.472656,410.144257 520.946960,409.966492 
	C524.225830,409.798676 527.487793,409.298828 530.505432,408.154846 
z"/>
<path fill="#7DD756" opacity="1.000000" stroke="none" 
	d="
M604.889038,447.976135 
	C604.495178,446.712921 604.151306,445.325073 604.582825,444.247894 
	C616.383545,414.793335 628.287720,385.380157 640.084290,355.923950 
	C641.032532,353.556122 642.285828,352.624481 644.850586,352.751190 
	C650.321289,353.021423 656.957581,351.166748 660.947937,353.657104 
	C664.643250,355.963318 665.629944,362.747894 667.609924,367.641113 
	C677.829285,392.896179 687.986511,418.176361 698.155884,443.451630 
	C698.701172,444.806854 699.160095,446.196777 699.815125,447.999542 
	C692.597290,447.999542 685.793274,448.130554 679.004150,447.872620 
	C677.851074,447.828827 676.240051,446.335602 675.732666,445.134979 
	C673.538879,439.943512 671.676331,434.611969 669.572998,429.011108 
	C658.267822,429.011108 646.963745,428.930389 635.664856,429.135651 
	C634.533203,429.156219 632.930786,430.695465 632.409668,431.902374 
	C630.634338,436.013672 629.130920,440.254822 627.751526,444.520081 
	C626.921936,447.085266 625.680725,448.214905 622.776184,448.081757 
	C616.961792,447.815308 611.126892,447.998657 604.889038,447.976135 
M655.078003,391.386169 
	C654.002869,388.616089 652.927795,385.845978 651.479248,382.113831 
	C647.757874,391.868073 644.381653,400.717407 640.962341,409.679932 
	C648.267578,409.679932 654.967468,409.679932 662.096558,409.679932 
	C659.734558,403.538971 657.536987,397.825500 655.078003,391.386169 
z"/>
<path fill="#7DD756" opacity="1.000000" stroke="none" 
	d="
M163.720825,355.175964 
	C163.720840,387.938385 163.720840,420.222565 163.720840,452.754150 
	C149.718811,452.754150 136.272552,452.754150 122.431252,452.754150 
	C122.431252,418.428497 122.431252,384.046265 122.431252,349.328888 
	C135.929504,349.328888 149.496597,349.328888 163.720795,349.328888 
	C163.720795,351.143799 163.720795,352.920776 163.720825,355.175964 
z"/>
<path fill="#7DD756" opacity="1.000000" stroke="none" 
	d="
M319.014709,390.798584 
	C325.159027,390.798584 330.805969,390.798584 336.850098,390.798584 
	C336.850098,397.131683 336.850098,403.175079 336.850098,409.741699 
	C326.709259,409.741699 316.630493,409.741699 306.256287,409.741699 
	C306.256287,416.316559 306.256287,422.379791 306.256287,428.900452 
	C316.948212,428.900452 327.537567,428.900452 338.455353,428.900452 
	C338.455353,435.401520 338.455353,441.451050 338.455353,447.754333 
	C320.463348,447.754333 302.688019,447.754333 284.499451,447.754333 
	C284.499451,416.429504 284.499451,385.052002 284.499451,353.235748 
	C302.229767,353.235748 320.109528,353.235748 338.392944,353.235748 
	C338.392944,359.163300 338.392944,365.197357 338.392944,371.756165 
	C327.684540,371.756165 317.110992,371.756165 306.248596,371.756165 
	C306.248596,378.196503 306.248596,384.123016 306.248596,390.798584 
	C310.321686,390.798584 314.419495,390.798584 319.014709,390.798584 
z"/>
<path fill="#7DD756" opacity="1.000000" stroke="none" 
	d="
M123.000076,525.827209 
	C143.630020,525.827209 163.759949,525.827209 184.135635,525.827209 
	C184.135635,533.957581 184.387619,541.607422 184.044617,549.230469 
	C183.825974,554.089478 180.816727,556.752686 175.769165,556.775452 
	C150.438034,556.889587 125.105911,556.886841 99.774696,556.784424 
	C94.370316,556.762573 91.275604,553.818909 91.078857,548.484924 
	C90.809563,541.184509 91.011574,533.866638 91.011574,525.827209 
	C101.656212,525.827209 112.078148,525.827209 123.000076,525.827209 
z"/>
<path fill="#7ED957" opacity="1.000000" stroke="none" 
	d="
M101.027023,276.168213 
	C97.559448,276.168213 94.586784,276.168213 91.199051,276.168213 
	C91.199051,267.931458 90.860054,259.993103 91.341515,252.104797 
	C91.583656,248.137497 94.368591,245.678589 98.852829,245.686478 
	C124.647545,245.731903 150.442596,245.641663 176.237045,245.736450 
	C181.524399,245.755890 183.865677,247.964310 184.101196,253.365173 
	C184.419540,260.665405 184.180313,267.989960 184.180313,276.168213 
	C156.585617,276.168213 129.053772,276.168213 101.027023,276.168213 
z"/>
<path fill="#7DD656" opacity="1.000000" stroke="none" 
	d="
M372.949310,416.000000 
	C372.949310,426.787994 372.949310,437.076019 372.949310,447.682861 
	C365.685547,447.682861 358.773193,447.682861 351.471710,447.682861 
	C351.471710,416.286713 351.471710,384.804047 351.471710,353.059235 
	C358.553955,353.059235 365.458923,353.059235 372.949310,353.059235 
	C372.949310,374.005127 372.949310,394.752563 372.949310,416.000000 
z"/>
<path fill="#7ED957" opacity="1.000000" stroke="none" 
	d="
M725.365601,388.000244 
	C725.352112,407.633392 725.340393,426.766510 725.314575,445.899628 
	C725.313904,446.384460 725.157837,446.869080 725.019165,447.673492 
	C718.149475,447.673492 711.254822,447.673492 704.039124,447.673492 
	C704.039124,416.239655 704.039124,384.887695 704.039124,353.170563 
	C710.942017,353.170563 717.817688,353.170563 725.365601,353.170563 
	C725.365601,364.670319 725.365601,376.085266 725.365601,388.000244 
z"/>
<path fill="#7BD555" opacity="1.000000" stroke="none" 
	d="
M585.172974,449.782990 
	C578.750061,449.205841 574.867493,445.828552 573.256287,440.216003 
	C571.767822,435.030823 573.059875,430.280975 577.234192,426.617554 
	C581.215088,423.123932 585.782715,422.270966 590.732971,424.188293 
	C596.372925,426.372711 599.841187,432.629669 598.927368,438.715088 
	C597.964905,445.123932 593.366150,448.946289 585.172974,449.782990 
z"/>
<path fill="#7BD455" opacity="1.000000" stroke="none" 
	d="
M718.765869,321.760132 
	C721.438293,319.474487 723.843628,317.424622 726.677917,315.009216 
	C730.124084,319.349792 733.479553,323.576172 737.174255,328.229797 
	C732.265259,331.104980 727.728027,333.772400 723.180847,336.422791 
	C718.751404,339.004578 714.311890,341.568970 709.687500,344.250793 
	C707.472595,341.148438 705.471558,338.345612 703.242981,335.224030 
	C708.473816,330.688446 713.486328,326.342163 718.765869,321.760132 
z"/>
<path fill="#030502" opacity="1.000000" stroke="none" 
	d="
M237.108948,393.444794 
	C232.394333,394.207886 228.044525,394.810791 223.333862,395.463715 
	C223.333862,386.566589 223.333862,378.644165 223.333862,370.736542 
	C232.219391,368.669220 240.159256,371.249786 242.531601,376.935455 
	C245.191772,383.311005 243.123199,389.997589 237.108948,393.444794 
z"/>
<path fill="#030502" opacity="1.000000" stroke="none" 
	d="
M530.631348,408.549957 
	C527.487793,409.298828 524.225830,409.798676 520.946960,409.966492 
	C517.472656,410.144257 513.982117,410.006378 509.848724,410.006378 
	C513.343262,400.808350 516.675354,392.037781 520.477661,382.029572 
	C524.094971,391.453766 527.300232,399.804291 530.631348,408.549957 
z"/>
<path fill="#030502" opacity="1.000000" stroke="none" 
	d="
M655.208740,391.749084 
	C657.536987,397.825500 659.734558,403.538971 662.096558,409.679932 
	C654.967468,409.679932 648.267578,409.679932 640.962341,409.679932 
	C644.381653,400.717407 647.757874,391.868073 651.479248,382.113831 
	C652.927795,385.845978 654.002869,388.616089 655.208740,391.749084 
z"/>
</svg>